<svg xmlns="http://www.w3.org/2000/svg" viewBox="0 0 500 500"><g id="freepik--background-complete--inject-4"><rect x="416.78" y="398.49" width="33.12" height="0.25" style="fill:#ebebeb"></rect><rect x="322.53" y="401.21" width="8.69" height="0.25" style="fill:#ebebeb"></rect><rect x="396.59" y="389.21" width="19.19" height="0.25" style="fill:#ebebeb"></rect><rect x="52.46" y="390.89" width="43.19" height="0.25" style="fill:#ebebeb"></rect><rect x="104.56" y="390.89" width="6.33" height="0.25" style="fill:#ebebeb"></rect><rect x="131.47" y="395.11" width="93.68" height="0.25" style="fill:#ebebeb"></rect><path d="M237,337.8H43.91a5.71,5.71,0,0,1-5.7-5.71V60.66A5.71,5.71,0,0,1,43.91,55H237a5.71,5.71,0,0,1,5.71,5.71V332.09A5.71,5.71,0,0,1,237,337.8ZM43.91,55.2a5.46,5.46,0,0,0-5.45,5.46V332.09a5.46,5.46,0,0,0,5.45,5.46H237a5.47,5.47,0,0,0,5.46-5.46V60.66A5.47,5.47,0,0,0,237,55.2Z" style="fill:#ebebeb"></path><path d="M453.31,337.8H260.21a5.72,5.72,0,0,1-5.71-5.71V60.66A5.72,5.72,0,0,1,260.21,55h193.1A5.71,5.71,0,0,1,459,60.66V332.09A5.71,5.71,0,0,1,453.31,337.8ZM260.21,55.2a5.47,5.47,0,0,0-5.46,5.46V332.09a5.47,5.47,0,0,0,5.46,5.46h193.1a5.47,5.47,0,0,0,5.46-5.46V60.66a5.47,5.47,0,0,0-5.46-5.46Z" style="fill:#ebebeb"></path><rect y="382.4" width="500" height="0.25" style="fill:#ebebeb"></rect><path d="M249.64,81.23,219.83,62.39c-.66-.42-1.85-.11-1.85.48V80.06L190,62.39c-.66-.42-1.85-.11-1.85.48V80.06l-28-17.67c-.66-.42-1.85-.11-1.85.48V80.06l-28-17.67c-.66-.42-1.85-.11-1.85.48V80.06l-28-17.67c-.66-.42-1.85-.11-1.85.48V80.06l-28-17.67c-.66-.42-1.85-.11-1.85.48V80.06L41,62.39c-1-.63-2.52.34-1.53,1L69.25,82.2h0a1.4,1.4,0,0,0,1.16.11c.35-.08.64-.27.66-.58v0h0V64.53l28,17.67h0a1.4,1.4,0,0,0,1.16.11c.35-.08.64-.27.66-.58v0h0V64.53l28,17.67h0a1.4,1.4,0,0,0,1.16.11c.35-.08.64-.27.66-.58v0h0V64.53l28,17.67h0a1.4,1.4,0,0,0,1.16.11c.35-.08.64-.27.66-.58v0h0V64.53l28,17.67h0a1.4,1.4,0,0,0,1.16.11c.36-.08.64-.27.66-.58v0h0V64.53l28,17.67h0a1.4,1.4,0,0,0,1.16.11c.36-.08.64-.27.66-.58v0h0V64.53l28,17.67C249.1,82.83,250.63,81.86,249.64,81.23Z" style="fill:#e0e0e0"></path><path d="M250.51,62.87c0-.56-.75-1-1.63-1H40.21c-.88,0-1.63.47-1.63,1V81.72c0,.56.74,1,1.63,1H248.88a2,2,0,0,0,1.1-.28l.05,0,0,0a.82.82,0,0,0,.45-.7ZM178.33,80.69H41.83V63.9H247.25V80.69Z" style="fill:#f0f0f0"></path><path d="M457.91,81.23,428.1,62.39c-.67-.42-1.85-.11-1.85.48V80.06l-28-17.67c-.67-.42-1.86-.11-1.86.48V80.06L368.48,62.39c-.67-.42-1.86-.11-1.86.48V80.06L338.67,62.39c-.67-.42-1.86-.11-1.86.48V80.06L308.86,62.39c-.67-.42-1.86-.11-1.86.48V80.06L279.05,62.39c-.67-.42-1.86-.11-1.86.48V80.06L249.24,62.39c-1-.63-2.53.34-1.54,1L277.51,82.2h0a1.41,1.41,0,0,0,1.16.11c.36-.08.64-.27.66-.58v0h0V64.53l28,17.67h0a1.41,1.41,0,0,0,1.16.11c.36-.08.64-.27.66-.58v0h0V64.53l28,17.67h0a1.41,1.41,0,0,0,1.16.11c.36-.08.64-.27.66-.58v0h0V64.53l28,17.67h0a1.41,1.41,0,0,0,1.16.11c.36-.08.64-.27.66-.58v0h0V64.53L396.75,82.2h0a1.41,1.41,0,0,0,1.16.11c.36-.08.64-.27.66-.58v0h0V64.53L426.56,82.2h0a1.41,1.41,0,0,0,1.16.11c.36-.08.64-.27.66-.58v0h0V64.53L456.37,82.2C457.36,82.83,458.9,81.86,457.91,81.23Z" style="fill:#e0e0e0"></path><path d="M458.77,62.87c0-.56-.75-1-1.63-1H248.47c-.88,0-1.63.47-1.63,1V81.72c0,.56.75,1,1.63,1H457.14a2,2,0,0,0,1.1-.28l.06,0,0,0a.83.83,0,0,0,.44-.7ZM386.59,80.69H250.1V63.9H455.51V80.69Z" style="fill:#f0f0f0"></path><rect x="316.7" y="62.18" width="3.33" height="29.07" style="fill:#e0e0e0"></rect><rect x="443.56" y="62.18" width="3.33" height="29.07" style="fill:#e0e0e0"></rect><rect x="299.06" y="89.2" width="159.96" height="97.23" style="fill:#ebebeb"></rect><rect x="304.02" y="92.92" width="144.79" height="88.01" style="fill:#fafafa"></rect><rect x="453.56" y="89.2" width="5.46" height="97.23" style="fill:#e0e0e0"></rect><rect x="256.91" y="90.07" width="21.73" height="1" transform="translate(28.31 240.78) rotate(-50.79)" style="fill:#e0e0e0"></rect><rect x="59.95" y="81.68" width="1" height="16.93" transform="translate(-36.16 40.68) rotate(-29.04)" style="fill:#e0e0e0"></rect><path d="M64,96.32,61,137.41s59.11,8.46,98.55,8.46c45,0,106.34-8.46,106.34-8.46l-2.84-41.09S191.47,105,157.88,105C125.17,105,64,96.32,64,96.32Z" style="fill:#e6e6e6"></path><path d="M112.93,117.37l-.15,1.52-1.79-.18.17-1.62c.15-1.52-.36-2.5-1.73-2.64s-2.08.71-2.23,2.23l-.92,8.94c-.15,1.52.38,2.5,1.73,2.64s2.08-.72,2.23-2.24l.23-2.2,1.78.19-.21,2.1c-.26,2.56-1.64,4.12-4.25,3.86s-3.62-2.08-3.36-4.64l.9-8.74c.26-2.56,1.64-4.12,4.22-3.86S113.2,114.81,112.93,117.37Z" style="fill:#fff"></path><path d="M117.89,117.85c.23-2.59,1.66-4.14,4.25-3.91s3.74,2,3.51,4.6l-.78,8.75c-.23,2.56-1.66,4.14-4.27,3.9s-3.72-2-3.49-4.59Zm1.08,9c-.14,1.54.43,2.5,1.78,2.62s2.09-.72,2.23-2.27l.79-8.94c.14-1.52-.41-2.5-1.79-2.62s-2.08.74-2.22,2.26Z" style="fill:#fff"></path><path d="M131.53,131.93l-1.7-.12,1.23-16.94,2.4.17,3,12.53.89-12.24,1.67.12-1.23,16.94-2-.14-3.34-14Z" style="fill:#fff"></path><path d="M149.56,124l-.09,1.72-3.9-.21-.38,7.34-1.89-.09.89-17,6.73.36-.09,1.72-4.84-.26-.33,6.18Z" style="fill:#fff"></path><path d="M161.47,124l0,1.7-4.14-.1-.15,6,5.09.12,0,1.72-7-.17.42-17,7,.17,0,1.72-5.09-.12-.14,5.79Z" style="fill:#fff"></path><path d="M171.48,116.45c2.67,0,3.81,1.31,3.84,3.83l0,1.39c0,1.87-.62,3-2.07,3.52,1.56.44,2.16,1.69,2.18,3.51l0,2.65a4.17,4.17,0,0,0,.37,2l-1.92,0a4.35,4.35,0,0,1-.34-2.06l0-2.67c0-1.92-.93-2.51-2.51-2.49l-1.33,0,.09,7.25-1.89,0-.22-17Zm-.38,8c1.51,0,2.4-.51,2.37-2.36l0-1.62c0-1.53-.59-2.32-2-2.3l-1.85,0,.09,6.28Z" style="fill:#fff"></path><path d="M186.69,123.53l.06,1.7-4.14.16.23,6,5.1-.2L188,133l-7,.28-.66-17,7-.27.07,1.72-5.09.2.22,5.8Z" style="fill:#fff"></path><path d="M195,132.59l-1.7.1-1-17,2.4-.14,4.64,12-.72-12.25,1.67-.1,1,17-2,.11-5.14-13.45Z" style="fill:#fff"></path><path d="M213.26,118.43l.12,1.53-1.79.13-.12-1.62c-.12-1.52-.79-2.4-2.17-2.29s-1.92,1.07-1.8,2.59l.68,9c.11,1.52.81,2.4,2.16,2.29s1.92-1.07,1.8-2.59l-.16-2.2,1.79-.14.16,2.11c.19,2.56-.89,4.35-3.5,4.54s-3.93-1.4-4.12-4l-.67-8.75c-.19-2.56.89-4.35,3.48-4.54S213.07,115.87,213.26,118.43Z" style="fill:#fff"></path><path d="M224.73,120.88l.15,1.69-4.13.37.53,6,5.07-.44.15,1.71-7,.62-1.49-16.92,7-.62.15,1.72-5.07.45.51,5.77Z" style="fill:#fff"></path><path d="M144.37,209.68a5,5,0,0,1,0,.67,2.11,2.11,0,0,1,.6-.31C144.81,209.91,144.59,209.79,144.37,209.68Z" style="fill:#fafafa"></path><path d="M182.48,354.17a18.35,18.35,0,0,1-6.29-2.65,1.55,1.55,0,0,0,1.08-.1.75.75,0,0,0,.3-.67.49.49,0,0,0-.24-.42,2.17,2.17,0,0,0-1.57.08,2.07,2.07,0,0,0,.75-1.24.51.51,0,0,0-.39-.47.69.69,0,0,0-.61.08,2.65,2.65,0,0,0-.75,1.53h0a1.44,1.44,0,0,0-.36-.15l-.46-.09,1.28-5.74,2.55.34,1.62-4.29-2.21-.32a308.38,308.38,0,0,0,6.48-41.35c.06-16.15-42.3-21.68-42.35-21.69.14-2.88.61-7.95.65-7.95,1.53,1.76,14.88,10,15.83,9.9a11.33,11.33,0,0,0,1.42-.22l1-.21a12.64,12.64,0,0,0,2.92,0h0l5.11.55-.27-5.51-3.3-1.08h0l-3.11.3a5,5,0,0,0-2.38,1.31h-.06l-1.17-.2c-.78-.15-1.54-.32-2.29-.53-1.39-.35-8.18-9.9-8.35-10.38a15.1,15.1,0,0,1-.45-1.85,27.59,27.59,0,0,1-.35-4.44c0-.36,0-.74,0-1.11l3.9-.75a69.23,69.23,0,0,0-2.19-12.3c-1.19-4.65-3.58-7.35-6.22-7.82L138.47,233a5.82,5.82,0,0,1-.09-1.93,4.94,4.94,0,0,0,3.74,0,2.92,2.92,0,0,1-2.71-1.36,4.41,4.41,0,0,1-.56-1.13l0-.13h.34a7.23,7.23,0,0,0,.93,0l0-.09a8.65,8.65,0,0,0,7-6.75c.09-.44.17-.91.22-1.39a13.62,13.62,0,0,1,.34,3,11,11,0,0,1-3.74,8.45,6.22,6.22,0,0,0,4.81-3.15,16.09,16.09,0,0,0,1.83-5.66,26.91,26.91,0,0,0,.44-8.67,11.59,11.59,0,0,0-4-7.51,5.09,5.09,0,0,0-3.28-1.22,4,4,0,0,0-1.15.2,2.11,2.11,0,0,0-.6.31,5,5,0,0,0-.05-.67,6.58,6.58,0,0,0-.14-.75,1.38,1.38,0,0,0-.44-.55,3.85,3.85,0,0,0-4.06-.16,5.53,5.53,0,0,0-1.37,1,8.54,8.54,0,0,0-3.88,2.48,8,8,0,0,0-.51.62,8.52,8.52,0,0,0-1.14,2.18,8.37,8.37,0,0,0-.43,3.65c.05.64.1,1.25.15,1.84,0,.19,0,.35,0,.54-1.26.1-1.95,1.45-1.59,2.84a5.34,5.34,0,0,0,2.2,3.06,1.48,1.48,0,0,0,.32.14,9.88,9.88,0,0,0,.54,1.4,10.59,10.59,0,0,0,.58,1,13.71,13.71,0,0,1-2.76,5.65c-.1.12-.21.23-.31.34h0l-5.64-.34a7.27,7.27,0,0,0-2.08,0c-5.83.81-10,18-10,18-2.07,4.45-2.91,8.07-1.14,12a9.67,9.67,0,0,0,1.62,2.42c-.39,4.55-.65,9.43-.77,14.07a31,31,0,0,0-1.4,8.92,15.75,15.75,0,0,0,2.86,9.75,9.62,9.62,0,0,0,1.61,1.3,5,5,0,0,0-3.89,4.87v1.36h4V355h3.54V302.86h8.72V355h3.53V302.86h6.94V355h3.53V302.86h6.51V355H149a.36.36,0,0,0-.13.22l-.88,4.94a1,1,0,0,0,.87,1.11c2.19.18,3.25.2,6,.5a50.24,50.24,0,0,0,7.4.62c2.36-.11,2.19-2.43,1.19-2.6a15.17,15.17,0,0,1-6-3h0a1.6,1.6,0,0,0,1.09-.18.7.7,0,0,0,.23-.69.46.46,0,0,0-.25-.4,2.14,2.14,0,0,0-1.52.18,2,2,0,0,0,.61-1.23.5.5,0,0,0-.42-.45.62.62,0,0,0-.6.11,2.48,2.48,0,0,0-.63,1.54,0,0,0,0,1,0,0,2.24,2.24,0,0,0-.37-.1h-.14l.79-5.33.12-.67,3.41.33,1.21-5.27-1.45-.11c1.16-4.41,6.56-25.75,7.24-43.62,1.29.25,2.46.52,3.46.82-2.5,10.87-1.74,30.45-1.38,37.1l-2.69-.39-.36,4.62,3.82.51-.35,1.54h0l-.87,3.89-.28-.06a.4.4,0,0,0-.49.27.08.08,0,0,0,0,0l-1.25,4.86a1,1,0,0,0,.78,1.17c2.17.38,3.09.44,5.86.77,1.7.2,5.77.66,8.14.65S183.49,354.37,182.48,354.17Zm-31.81-51.31h.1c0,.27-.07.53-.1.8Zm.16,47.08-.16,1.09v-2l.23,0Zm7.63,5.85a.24.24,0,0,1,.12.2.47.47,0,0,1-.15.46c-.21.18-.72.18-1.39,0l-.32-.29C157.37,355.88,158.15,355.63,158.46,355.79Zm-2.19,0a2.49,2.49,0,0,1,.54-1.47.36.36,0,0,1,.28-.08h.07c.18.05.24.14.23.22,0,.36-.48,1-1,1.44h0a.91.91,0,0,0-.16-.11Zm18.84-5.26-.13-.11h0a2.61,2.61,0,0,1,.66-1.47.42.42,0,0,1,.31-.06s0,0,.05,0c.19.06.21.15.21.23,0,.37-.57,1-1.08,1.39Zm.27.25a3.12,3.12,0,0,1,1.82-.28.22.22,0,0,1,.1.22.46.46,0,0,1-.17.44,1.93,1.93,0,0,1-1.44-.09A2.87,2.87,0,0,1,175.38,350.82Z" style="fill:#fafafa"></path><path d="M259.58,349.68a18.27,18.27,0,0,1-6.29-2.65,1.55,1.55,0,0,0,1.08-.1.75.75,0,0,0,.29-.67.5.5,0,0,0-.23-.42,2.2,2.2,0,0,0-1.58.08,2,2,0,0,0,.75-1.24.5.5,0,0,0-.39-.47.67.67,0,0,0-.6.08,2.59,2.59,0,0,0-.75,1.53h0a1.84,1.84,0,0,0-.36-.15l-.47-.09,1.29-5.74,2.55.34,1.61-4.29-2.21-.32a305.07,305.07,0,0,0,6.48-41.35c.06-16.15-42.29-21.68-42.35-21.69.15-2.88.61-8,.65-8,1.53,1.76,14.88,10,15.84,9.9a11.93,11.93,0,0,0,1.42-.22l1-.21a12.61,12.61,0,0,0,2.92,0h0l5.12.55-.28-5.51-3.3-1.08h0l-3.11.3a5,5,0,0,0-2.38,1.31h-.07l-1.16-.2c-.78-.15-1.54-.32-2.3-.53-1.38-.35-8.18-9.9-8.34-10.38a15.1,15.1,0,0,1-.45-1.85,27.6,27.6,0,0,1-.36-4.44c0-.36,0-.74,0-1.11l3.9-.75a68.34,68.34,0,0,0-2.19-12.3c-1.19-4.65-3.58-7.35-6.21-7.82l-3.54-1.76a8.14,8.14,0,0,1,.11-3.31,12.2,12.2,0,0,1,.3-1.26h.34a7.32,7.32,0,0,0,.94,0l0-.09a8.63,8.63,0,0,0,7-6.75,21.41,21.41,0,0,0,.12-7.73.43.43,0,0,0,0-.05c0-.32-.11-.62-.18-.92a14.09,14.09,0,0,0-1.68-4.38,8,8,0,0,0-.56-.83,2.92,2.92,0,0,0,1-.8c1.17-1.48.51-3.64-.2-5.39a10.49,10.49,0,0,1-3.62-.2,2.6,2.6,0,0,1-1.77,2.74c-1.11.43-2.34.14-3.52.24-3.73.32-6,1.81-6.49,3a14.79,14.79,0,0,0-.65,3.86,8.63,8.63,0,0,0,.29,3.89,3.06,3.06,0,0,0,.26.51v0c0,.19,0,.35,0,.54-1.26.1-1.95,1.45-1.58,2.84a5.28,5.28,0,0,0,2.19,3.06,1.73,1.73,0,0,0,.32.14,11.25,11.25,0,0,0,.54,1.4,8.94,8.94,0,0,0,.59,1,14,14,0,0,1-2.76,5.65c-.1.12-.21.23-.31.34h0l-5.65-.34a7.28,7.28,0,0,0-2.08,0c-5.82.81-10,18-10,18-2.08,4.45-2.92,8.07-1.15,12A10.24,10.24,0,0,0,189,258.1c-.39,4.55-.64,9.43-.77,14.07a30.84,30.84,0,0,0-1.4,8.91,15.79,15.79,0,0,0,2.87,9.76,9.53,9.53,0,0,0,1.6,1.3,5,5,0,0,0-3.88,4.87v1.36h4v52.15H195V298.37h8.72v52.15h3.54V298.37h6.93v52.15h3.54V298.37h6.51v52.15h1.88a.41.41,0,0,0-.13.22l-.87,4.94a1,1,0,0,0,.86,1.11c2.2.18,3.26.2,6,.5a50.36,50.36,0,0,0,7.4.62c2.36-.11,2.2-2.43,1.19-2.6a15.06,15.06,0,0,1-6-3h0a1.62,1.62,0,0,0,1.1-.18.72.72,0,0,0,.23-.69.47.47,0,0,0-.26-.4,2.14,2.14,0,0,0-1.52.18,2,2,0,0,0,.62-1.23.5.5,0,0,0-.43-.45.62.62,0,0,0-.6.11,2.54,2.54,0,0,0-.63,1.54h0a2.36,2.36,0,0,0-.38-.1h-.14l.8-5.33.11-.67,3.41.33,1.22-5.27-1.46-.11c1.16-4.41,6.56-25.75,7.25-43.62a35.41,35.41,0,0,1,3.45.82c-2.5,10.87-1.73,30.45-1.38,37.1L243.3,334l-.36,4.62,3.82.51-.34,1.54-.87,3.89-.27-.06a.41.41,0,0,0-.5.27s0,0,0,0l-1.25,4.86a1,1,0,0,0,.78,1.17c2.17.38,3.1.44,5.86.77,1.71.2,5.77.66,8.14.65S260.58,349.88,259.58,349.68Zm-31.82-51.31h.11c0,.27-.07.53-.11.8Zm.17,47.08-.17,1.09v-2l.23,0Zm7.62,5.85a.25.25,0,0,1,.13.2.49.49,0,0,1-.16.46c-.2.18-.71.18-1.38,0-.12-.1-.23-.19-.33-.29C234.47,351.39,235.25,351.14,235.55,351.3Zm-2.19,0a2.55,2.55,0,0,1,.54-1.47.37.37,0,0,1,.29-.08h.07c.18,0,.23.14.22.22,0,.36-.47,1-1,1.44h0l-.16-.11Zm18.84-5.26a.69.69,0,0,0-.13-.11h0a2.62,2.62,0,0,1,.67-1.47.39.39,0,0,1,.3-.06s0,0,.05,0c.19.06.22.15.22.23,0,.37-.57,1-1.09,1.39Zm.27.25a3.16,3.16,0,0,1,1.83-.28.22.22,0,0,1,.09.22.42.42,0,0,1-.17.44,1.93,1.93,0,0,1-1.44-.09C252.67,346.53,252.57,346.43,252.47,346.33Z" style="fill:#fafafa"></path><path d="M92.62,349.68A18.27,18.27,0,0,1,86.33,347a1.55,1.55,0,0,0,1.08-.1.75.75,0,0,0,.29-.67.5.5,0,0,0-.23-.42,2.2,2.2,0,0,0-1.58.08,2,2,0,0,0,.75-1.24.5.5,0,0,0-.39-.47.67.67,0,0,0-.6.08,2.59,2.59,0,0,0-.75,1.53h0a1.84,1.84,0,0,0-.36-.15l-.47-.09,1.29-5.74,2.55.34,1.61-4.29-2.21-.32a305.07,305.07,0,0,0,6.48-41.35c.06-16.15-42.29-21.68-42.35-21.69.15-2.88.61-8,.65-8,1.53,1.76,14.88,10,15.84,9.9a11.93,11.93,0,0,0,1.42-.22l1-.21a12.61,12.61,0,0,0,2.92,0h0l5.12.55-.28-5.51L74.82,268h0l-3.11.3a5,5,0,0,0-2.38,1.31h-.07l-1.16-.2c-.78-.15-1.54-.32-2.3-.53-1.38-.35-8.18-9.9-8.34-10.38a15.1,15.1,0,0,1-.45-1.85,27.6,27.6,0,0,1-.36-4.44c0-.36,0-.74,0-1.11l3.9-.75A68.34,68.34,0,0,0,58.35,238c-1.19-4.65-3.58-7.35-6.21-7.82l-3.54-1.76a8.14,8.14,0,0,1,.11-3.31,12.2,12.2,0,0,1,.3-1.26h.34a7.32,7.32,0,0,0,.94,0l0-.09a8.63,8.63,0,0,0,7-6.75,21.41,21.41,0,0,0,.12-7.73.43.43,0,0,0,0-.05c0-.32-.11-.62-.18-.92a14.09,14.09,0,0,0-1.68-4.38,8,8,0,0,0-.56-.83,2.92,2.92,0,0,0,1-.8c1.17-1.48-4.41-2.81-5.59-2.85-2.08-.06-4.34-.93-10,3.28-1.05.78-.55,2.56-.65,3.86a8.63,8.63,0,0,0,.29,3.89,3.06,3.06,0,0,0,.26.51v0c0,.19,0,.35,0,.54-1.26.1-1.95,1.45-1.58,2.84a5.28,5.28,0,0,0,2.19,3.06,1.73,1.73,0,0,0,.32.14,11.25,11.25,0,0,0,.54,1.4,8.94,8.94,0,0,0,.59,1,14,14,0,0,1-2.76,5.65c-.1.12-.21.23-.31.34h0l-1.1-.07V350.52h2.08V298.37h6.93v52.15h3.54V298.37h6.51v52.15h1.88a.41.41,0,0,0-.13.22l-.87,4.94a1,1,0,0,0,.86,1.11c2.2.18,3.26.2,6,.5a50.36,50.36,0,0,0,7.4.62c2.36-.11,2.2-2.43,1.19-2.6a15.06,15.06,0,0,1-6-3h0a1.62,1.62,0,0,0,1.1-.18.72.72,0,0,0,.23-.69.47.47,0,0,0-.26-.4,2.14,2.14,0,0,0-1.52.18,2,2,0,0,0,.62-1.23.5.5,0,0,0-.43-.45.62.62,0,0,0-.6.11,2.54,2.54,0,0,0-.63,1.54h0a2.36,2.36,0,0,0-.38-.1h-.14l.8-5.33.11-.67,3.41.33,1.22-5.27-1.46-.11c1.16-4.41,6.56-25.75,7.25-43.62a35.41,35.41,0,0,1,3.45.82c-2.5,10.87-1.73,30.45-1.38,37.1L76.34,334,76,338.6l3.82.51-.34,1.54-.87,3.89-.27-.06a.41.41,0,0,0-.5.27s0,0,0,0l-1.25,4.86a1,1,0,0,0,.78,1.17c2.17.38,3.1.44,5.86.77,1.71.2,5.77.66,8.14.65S93.62,349.88,92.62,349.68ZM60.8,298.37h.11c0,.27-.07.53-.11.8ZM61,345.45l-.17,1.09v-2l.23,0Zm7.62,5.85a.25.25,0,0,1,.13.2.49.49,0,0,1-.16.46c-.2.18-.71.18-1.38,0-.12-.1-.23-.19-.33-.29C67.51,351.39,68.29,351.14,68.59,351.3Zm-2.19,0a2.55,2.55,0,0,1,.54-1.47.37.37,0,0,1,.29-.08h.07c.18,0,.23.14.22.22,0,.36-.47,1-1,1.44h0l-.16-.11Zm18.84-5.26a.69.69,0,0,0-.13-.11h0a2.62,2.62,0,0,1,.67-1.47.39.39,0,0,1,.3-.06s0,0,0,0c.19.06.22.15.22.23,0,.37-.57,1-1.09,1.39Zm.27.25a3.16,3.16,0,0,1,1.83-.28.22.22,0,0,1,.09.22.42.42,0,0,1-.17.44,1.93,1.93,0,0,1-1.44-.09C85.71,346.53,85.61,346.43,85.51,346.33Z" style="fill:#fafafa"></path><path d="M88.69,225.87a8.48,8.48,0,0,0,5.62,5.28,74.05,74.05,0,0,0-2.81-10.69,6,6,0,0,0-1-2C87.08,214.56,88.13,224.44,88.69,225.87Z" style="fill:#e0e0e0"></path><rect x="112.42" y="301.35" width="3.54" height="52.14" style="fill:#e0e0e0"></rect><path d="M90.7,295h35.63a0,0,0,0,1,0,0v6.37a0,0,0,0,1,0,0H85.7a0,0,0,0,1,0,0V300A5,5,0,0,1,90.7,295Z" style="fill:#f0f0f0"></path><rect x="89.7" y="301.35" width="3.54" height="52.14" style="fill:#e0e0e0"></rect><rect x="101.95" y="301.35" width="3.54" height="52.14" style="fill:#f0f0f0"></rect><rect x="122.47" y="301.35" width="3.54" height="52.14" style="fill:#f0f0f0"></rect><polygon points="113.93 338.73 119.36 340.23 124.24 327.46 118.81 325.96 113.93 338.73" style="fill:#fafafa"></polygon><path d="M121.8,338.54a2.87,2.87,0,0,0-1.75-1.06l-5.59-1.09a.51.51,0,0,0-.6.34l-1.73,5.11a1.11,1.11,0,0,0,.68,1.42h0c2.06.82,3.45.54,6.68,1.16,2,.39,6.16,1.71,8.95,1.6s2.78-2.88,1.61-3.08A14.21,14.21,0,0,1,121.8,338.54Z" style="fill:#e0e0e0"></path><g style="opacity:0.1"><polygon points="124.24 327.47 121.72 334.05 116.29 332.54 118.8 325.96 124.24 327.47"></polygon></g><path d="M106.11,279s32.7-.18,31.68,10.77c-.69,7.4-4.24,15.18-7,22.68-4,10.88-7.49,20.36-7.49,20.36l-7.46-2.58s6.7-31.46,11.21-34.68H99.39c-9.15,0-13.11-10-4.2-21.77C100.64,273.83,106.11,279,106.11,279Z" style="fill:#e6e6e6"></path><path d="M122.63,269.47c5.55-.75,4.9-6.43,2.9-10.14-1.67-3.1-14.07-21.88-16.34-20.56C99.64,244.34,122.63,269.47,122.63,269.47Z" style="fill:#e0e0e0"></path><path d="M94,236.14c-2,.43-4.2-.3-5.62,1.19A9.5,9.5,0,0,0,86.12,243a37.88,37.88,0,0,0,.44,8.57c.45,3.45.89,6.9,1.34,10.35a31.13,31.13,0,0,1-.33,8.51v0a1.36,1.36,0,0,0,.78,1.48s15.66.54,20.21.37c2.42-.09.76-6.46,1.5-10.17.16-.82,1.78-4.22,2-5.1,1.13-4.11.38-6.93-.66-11.06-.76-3-1.07-7.32-2.6-7.65C106.1,237.71,99.58,234.94,94,236.14Z" style="fill:#e0e0e0"></path><path d="M92,238.57c-.2-.31-5.71-4.95-6.71.41-1.4,7.45,1.49,14.79,1.49,14.79s.66,8.07,3,8.87,4.58,1,5.37-.37a8.29,8.29,0,0,0,.78-3.45S95.64,244.14,92,238.57Z" style="fill:#e0e0e0"></path><path d="M95.53,225.9c.57,3.44,1,9.71-1.4,11.92a32.19,32.19,0,0,1,9.92,8.61,5.19,5.19,0,0,0,1.83-5.79,5.1,5.1,0,0,0-2.53-3c-2.33-1.28-2.11-3.68-1.47-5.93Z" style="fill:#f5f5f5"></path><path d="M96.32,231.73l2.23.86a7.53,7.53,0,0,0,3,.49h0a4.74,4.74,0,0,0,0,2.12,4.27,4.27,0,0,1-4.44-1.43A6.94,6.94,0,0,1,96.32,231.73Z" style="opacity:0.1;isolation:isolate"></path><polygon points="151.8 327.75 157.88 327.75 151.51 312.49 147.38 319.49 151.8 327.75" style="fill:#e0e0e0"></polygon><path d="M157.38,326.31l-7.14-1.62a.5.5,0,0,0-.6.31l-2,5.49a1.1,1.1,0,0,0,.75,1.36h0c2.51.52,3.74.65,6.88,1.36,1.93.44,6.82,1.73,9.48,2.33s3.37-2,2.31-2.5c-4.76-2.21-7.34-4.31-8.72-6.11A1.7,1.7,0,0,0,157.38,326.31Z" style="fill:#e0e0e0"></path><g style="opacity:0.2"><polygon points="151.51 312.49 154.22 318.99 148.75 322.05 147.38 319.5 151.51 312.49"></polygon></g><path d="M87.45,272,86.79,274c-.09.16.1.33.37.34l23.58.71c.21,0,.39-.09.41-.23l.27-2.08c0-.14-.16-.27-.39-.28l-23.17-.7A.43.43,0,0,0,87.45,272Z" style="fill:#e0e0e0"></path><path d="M116.92,289c-7.75,3.3-16.16,6.6-20.73,6.6C87,295.6,78.91,289,87.57,274c5.45,0,14.92.15,14.92.15s17.85-5.06,30.8-3.58A14.6,14.6,0,0,1,146,282.22c3.29,16.54,8.35,34.46,8.35,34.46l-6.51,4.43s-10.16-21.35-16-38.3C128.7,283.8,123,286.4,116.92,289Z" style="fill:#f5f5f5"></path><path d="M137.8,289.81a62.94,62.94,0,0,1-1,6.34,1.67,1.67,0,0,1-.08-.2l0-.05-.08-.21c-1.74-4.3-3.43-8.72-4.86-12.87l0,0h0C135.57,284.41,138.09,286.65,137.8,289.81Z" style="fill:#e6e6e6"></path><path d="M91.36,222.61c1.91,5.38,2.61,7.7,6.19,9.71,5.39,3.05,11.57-.49,11.3-6.34-.24-5.25-3.33-13.18-9.31-13.81a7.8,7.8,0,0,0-8.18,10.44Z" style="fill:#f5f5f5"></path><path d="M101,221.91c.14.46.47.74.76.65s.41-.51.3-1-.47-.74-.76-.65S100.91,221.46,101,221.91Z" style="fill:#e0e0e0"></path><path d="M106,220.33c.13.47.47.74.76.66s.41-.51.3-1-.47-.74-.76-.66S105.9,219.89,106,220.33Z" style="fill:#e0e0e0"></path><path d="M106.2,219.44l1-.62S106.88,219.81,106.2,219.44Z" style="fill:#e0e0e0"></path><path d="M101.09,221.07l1-.62S101.77,221.44,101.09,221.07Z" style="fill:#e0e0e0"></path><path d="M91,227.88a4.49,4.49,0,0,0,3,1.71c1.56.19,2.11-1.26,1.48-2.61s-2-2.77-3.53-2.36A2,2,0,0,0,91,227.88Z" style="fill:#f5f5f5"></path><path d="M101.12,218.06a.3.3,0,0,1-.24.24,3.4,3.4,0,0,0-2,1.79.28.28,0,1,1-.51-.23,4,4,0,0,1,2.42-2.12.28.28,0,0,1,.33.22A.36.36,0,0,1,101.12,218.06Z" style="fill:#e0e0e0"></path><path d="M104.51,216.79a.3.3,0,0,0-.24.06c-.07.08-.3.21-.17.28a5.25,5.25,0,0,0,2.68.91c.14,0,.47-.15.4-.24a.4.4,0,0,0-.38-.13c-.66.09-1.53-.52-2.14-.84A.42.42,0,0,0,104.51,216.79Z" style="fill:#e0e0e0"></path><path d="M98.61,236.32c.07-.2.15-.46.24-.75a2.71,2.71,0,0,0-1.54-3.3l0,0a1.1,1.1,0,0,1-.68-.9c-.19-1.5-.28-2-.44-3.43-1.2-.58-2.78-.44-4.11-.58a11.43,11.43,0,0,0-1.1,4.74,2.13,2.13,0,0,0,.18,1.06,17.61,17.61,0,0,0,3.37,3.23C95.56,237,97.39,236.17,98.61,236.32Z" style="fill:#f5f5f5"></path><path d="M98.61,236.32c.07-.2.15-.46.24-.75a2.71,2.71,0,0,0-1.54-3.3l0,0a1.1,1.1,0,0,1-.68-.9c-.19-1.5-.28-2-.44-3.43-1.2-.58-2.78-.44-4.11-.58a11.43,11.43,0,0,0-1.1,4.74,2.13,2.13,0,0,0,.18,1.06,17.61,17.61,0,0,0,3.37,3.23C95.56,237,97.39,236.17,98.61,236.32Z" style="fill:#fafafa"></path><path d="M94.64,236.44S86.42,257.82,89.22,262c1.64,2.43,3.67,1.73,5.06.73a4.49,4.49,0,0,0,1.83-3.17l2.5-23.19A2.78,2.78,0,0,0,94.64,236.44Z" style="fill:#f5f5f5"></path><path d="M94.64,236.44S86.42,257.82,89.22,262c1.64,2.43,3.67,1.73,5.06.73a4.49,4.49,0,0,0,1.83-3.17l2.5-23.19A2.78,2.78,0,0,0,94.64,236.44Z" style="fill:#fafafa"></path><path d="M124.48,266.54a9.6,9.6,0,0,1-3.57,4.33,9.18,9.18,0,0,1-1.83.76,111.31,111.31,0,0,1-11.39,2.57l-2.11-2.8s5.09-2.81,8-4l1.94-.85c1.28-.59,2.69-1.25,3.85-1.81Z" style="fill:#f5f5f5"></path><path d="M127.37,267.58c-.56,1.27-1.57,1.79-3.7,3.07s-4.82,1.55-4.59,1a.48.48,0,0,1,.15-.19c1.55-1.37-1-3.82-2.23-4.36a6.34,6.34,0,0,0-1.48-.56,1,1,0,0,0-1.11.34c-.68-.78,2.68-2.73,3.71-2.59h.75a9.87,9.87,0,0,1,3.53.66l2.56,1Z" style="fill:#e0e0e0"></path><path d="M105.58,271.4l-5.83,1.23a5.6,5.6,0,0,1,3.31,2c1.48,1.8,4.63-.47,4.63-.47Z" style="fill:#f5f5f5"></path><path d="M99.75,272.63l-1.89,5.2a3,3,0,0,0,3,.48,18.2,18.2,0,0,0,4.15-3S102.27,272.51,99.75,272.63Z" style="fill:#f5f5f5"></path><path d="M88.13,217.12a3.67,3.67,0,0,0,.73,3.8c1.43,1.33,3.81.77,5.37-.4s2.73-2.83,4.39-3.85a7,7,0,0,1,10.5,7.14,9.9,9.9,0,0,0,.54-10.73,10.63,10.63,0,0,0-9.6-5A11.36,11.36,0,0,0,93,211.22C91.31,212.79,88.86,214.93,88.13,217.12Z" style="fill:#e0e0e0"></path><g id="freepik--Character--inject-2--inject-4"><polygon points="283.04 352.02 288.66 352.42 291.54 339.56 285.92 339.16 283.04 352.02" style="fill:#f0f0f0"></polygon><path d="M289.64,350.2l-6.21-1.2a.41.41,0,0,0-.5.27s0,0,0,0l-1.25,4.86a1,1,0,0,0,.78,1.17c2.17.38,3.1.44,5.86.77,1.71.2,5.77.66,8.14.64s2.28-2.35,1.28-2.56c-2.38-.47-5.9-1.93-7.22-3.45A1.6,1.6,0,0,0,289.64,350.2Z" style="fill:#e0e0e0"></path><polygon points="285.91 339.17 291.54 339.56 290.15 345.76 284.57 345.17 285.91 339.17" style="opacity:0.1;isolation:isolate"></polygon><path d="M256.55,277.06s42.41,5.53,42.35,21.69a300.82,300.82,0,0,1-7.21,44.41l-7.41-2s-1.81-26.17,1.24-39.4c-11.35-3.37-43.9-3.47-47.25-13-2.75-7.77-1.2-12-1.2-12Z" style="fill:#f0f0f0"></path><polygon points="281.09 343.12 293.01 344.71 294.63 340.42 281.45 338.5 281.09 343.12" style="fill:#e0e0e0"></polygon><path d="M292.58,350.36a2.24,2.24,0,0,0-1.58.07l-.59.21-.43.18a.12.12,0,0,0-.07.07v0a.13.13,0,0,0,0,.1s0,0,0,0l0,0h0a6.72,6.72,0,0,0,1.39.48h0a1.61,1.61,0,0,0,1.1-.1.77.77,0,0,0,.29-.67A.5.5,0,0,0,292.58,350.36Zm-.21.87a2,2,0,0,1-1.45-.09,5.34,5.34,0,0,1-.55-.2l.25-.09a3.16,3.16,0,0,1,1.83-.28.22.22,0,0,1,.09.22A.42.42,0,0,1,292.37,351.23Z" style="fill:#f0f0f0"></path><path d="M291.36,348.73a.64.64,0,0,0-.6.08,2.53,2.53,0,0,0-.75,1.53c-.06.27-.09.47-.1.55v0a.13.13,0,0,0,0,.1l0,0h0l0,0h0l.08,0a2.42,2.42,0,0,0,.47-.25,4.72,4.72,0,0,0,.43-.37,2,2,0,0,0,.75-1.23A.5.5,0,0,0,291.36,348.73Zm-1,1.86-.18.11,0-.22a2.62,2.62,0,0,1,.67-1.47.39.39,0,0,1,.3-.06s0,0,.05,0c.19.06.22.15.22.23C291.46,349.57,290.89,350.23,290.37,350.59Z" style="fill:#f0f0f0"></path><polygon points="265.12 356.41 270.5 357.24 272.45 344.16 267.06 343.33 265.12 356.41" style="fill:#f0f0f0"></polygon><path d="M270.88,355.65l-6.28-.73a.42.42,0,0,0-.47.34l-.88,4.93a1,1,0,0,0,.87,1.12c2.2.18,3.26.2,6,.5a50.24,50.24,0,0,0,7.4.62c2.36-.11,2.2-2.43,1.19-2.6a15.46,15.46,0,0,1-6.92-3.76A1.62,1.62,0,0,0,270.88,355.65Z" style="fill:#e0e0e0"></path><path d="M274.08,356a.49.49,0,0,0-.26-.4,2.08,2.08,0,0,0-1.52.18l-.57.24-.46.23a.19.19,0,0,0-.06.07.21.21,0,0,0,0,.06.13.13,0,0,0,.09.11h0a6.77,6.77,0,0,0,1.39.36h.05a1.57,1.57,0,0,0,1.1-.19A.72.72,0,0,0,274.08,356Zm-.41.49c-.2.18-.71.18-1.38,0a4.26,4.26,0,0,1-.61-.16h0l.06,0,.24-.1c.65-.3,1.44-.55,1.74-.39a.24.24,0,0,1,.13.2A.5.5,0,0,1,273.67,356.48Z" style="fill:#f0f0f0"></path><path d="M272.49,354.09a.62.62,0,0,0-.6.11,2.54,2.54,0,0,0-.63,1.53c0,.26-.05.48-.05.58a.21.21,0,0,0,0,.06.13.13,0,0,0,.05.11h.16a1,1,0,0,0,.27-.16l0,0a1.25,1.25,0,0,0,.19-.15,3.59,3.59,0,0,0,.39-.39,2,2,0,0,0,.61-1.23A.46.46,0,0,0,272.49,354.09Zm-.82,1.88-.19.14a1.21,1.21,0,0,1,0-.25,2.49,2.49,0,0,1,.54-1.47.37.37,0,0,1,.29-.08h.07c.18.05.23.14.22.22C272.66,354.89,272.16,355.57,271.67,356Z" style="fill:#f0f0f0"></path><polygon points="266.61 343.12 272.78 343.2 271.36 351.33 266 350.99 266.61 343.12" style="opacity:0.1;isolation:isolate"></polygon><path d="M242.8,276.88s40.94,10.61,39.31,22.77c-.51,20.26-7.51,45.77-7.51,45.77l-10.31.27s-.72-25.2,1.78-43.18c-10.47-.14-31.94-.77-38.18-7.15-5.44-7-1.47-18.67-1.47-18.67Z" style="fill:#f0f0f0"></path><polygon points="262.73 348.79 275.06 349.96 276.28 344.7 262.71 343.67 262.73 348.79" style="fill:#e0e0e0"></polygon><path d="M254.63,240.73c-.19,1-.35,1.82-.48,2.72s-.25,1.76-.36,2.69c-.2,1.77-.33,3.57-.41,5.42a41.71,41.71,0,0,0,.88,11.36,18.57,18.57,0,0,0,1,3.08,12.28,12.28,0,0,0,1.91,3.11,13.39,13.39,0,0,0,5.69,3.85,19.11,19.11,0,0,0,6,1.05,27.74,27.74,0,0,0,2.88-.12,11.93,11.93,0,0,0,1.42-.22c.47-.11.91-.18,1.46-.31l-.45-4.2-1.12-.16-1.16-.2c-.78-.15-1.54-.32-2.3-.53a16.36,16.36,0,0,1-4-1.6,7.06,7.06,0,0,1-2.47-2.3,6.72,6.72,0,0,1-.63-1.36,13.26,13.26,0,0,1-.45-1.86,27.39,27.39,0,0,1-.36-4.43c0-1.56,0-3.15.15-4.77s.28-3.24.46-4.86l.31-2.44c.11-.8.23-1.66.34-2.35Z" style="fill:#f0f0f0"></path><path d="M252.27,236.53c4.17-3.94,9.26-1.52,11.19,6a69.23,69.23,0,0,1,2.19,12.3l-13.13,2.53C250.23,250.19,248,240.56,252.27,236.53Z" style="fill:#e0e0e0"></path><path d="M256.38,244.76c-.92-.86-3.63,2.89-5.32,7.53.44,1.77.94,3.48,1.45,5.08l7.91-1.53C259.85,251.18,258.46,246.68,256.38,244.76Z" style="opacity:0.1;isolation:isolate"></path><path d="M275.52,267.7l3.13-.3-1.53,6s-5.34.75-5.65-1.89l.75-1.4A5,5,0,0,1,275.52,267.7Z" style="fill:#f0f0f0"></path><polygon points="281.95 268.48 282.23 273.99 277.09 273.44 278.63 267.39 281.95 268.48" style="fill:#f0f0f0"></polygon><path d="M252.81,232.53l-6.26-1.85-8.06-.48a5.6,5.6,0,0,0-5.64,3.78,144.25,144.25,0,0,0-4.21,17.29c-1.26,6.57-2,16.45-2.22,25.42l30.13.4a226.46,226.46,0,0,1,4.59-35.88,5.59,5.59,0,0,0-3-6Z" style="fill:#e0e0e0"></path><path d="M228.64,251.25c.88-4.61,2-9.79,3.21-14.07,5.38-.84,7.83,11,6.16,16.79s-10.12,2.16-10.12,2.16C228.11,254.38,228.37,252.73,228.64,251.25Z" style="opacity:0.1;isolation:isolate"></path><path d="M255.48,236.38c-.18.83-1,1.65-4,1.09l-.68-.16a13.48,13.48,0,0,1-6.64-4c-1-1-.74-1.73.22-2.74l.32-.33a14.68,14.68,0,0,0,2.95-6.45c.16-.71.28-1.41.38-2.11.05-.39.1-.79.13-1.17s.08-.71.1-1l.34.53.62,1,1.59,2.5L255.5,225a10,10,0,0,0-1,2.22c-.13.37-.26.78-.38,1.21s-.22.85-.3,1.28a8,8,0,0,0-.11,3.31,2.6,2.6,0,0,0,1,1.6l.07,0A1.83,1.83,0,0,1,255.48,236.38Z" style="fill:#f0f0f0"></path><path d="M255.55,228a.2.2,0,0,0-.06.09,1,1,0,0,0-.09.24,6.84,6.84,0,0,1-1.28,0c-.12.42-.22.85-.3,1.28a7.43,7.43,0,0,1-1.92-1.79h0a3.87,3.87,0,0,1-.82-2,9.77,9.77,0,0,1,0-1.53c0-.12,0-.24,0-.35l3.2,3,.17.14Z" style="opacity:0.1;isolation:isolate"></path><path d="M257.05,218.5c1.86-5.29.94-8,3-11,1.23-.76,3.85,1.35,2.89,5.67S257.05,218.5,257.05,218.5Z" style="fill:#e0e0e0"></path><path d="M262.41,221.86a8.24,8.24,0,0,1-7,6.51,6.84,6.84,0,0,1-1.28,0,6.7,6.7,0,0,1-2.22-.51h0a7.1,7.1,0,0,1-2.28-1.47,8.52,8.52,0,0,1-1.93-2.64,9.93,9.93,0,0,1-.58-1.52,19.25,19.25,0,0,1-.5-2.43c-.14-1.09-.25-2.29-.36-3.64-.05-.56-.1-1.14-.15-1.75a8.16,8.16,0,0,1,.41-3.47,8,8,0,0,1,1.09-2.07c.16-.21.31-.41.48-.6a8.06,8.06,0,0,1,8.67-2.26,7.15,7.15,0,0,1,3,2,8.79,8.79,0,0,1,1,1.38,13.27,13.27,0,0,1,1.59,4.16,8.06,8.06,0,0,1,.17.88v0A20.45,20.45,0,0,1,262.41,221.86Z" style="fill:#f0f0f0"></path><path d="M246.12,219.6l3.36,1.42-.29-5.07,2.34-1.8,2.47-5.07s-7-1.05-9-1c-.71,0-2.91,2.24-3.16,3.1a6.65,6.65,0,0,0,2,6.7A14.67,14.67,0,0,0,246.12,219.6Z" style="fill:#e0e0e0"></path><path d="M242.9,206A4.48,4.48,0,0,1,245,202.4c1.36-1,5.09-2.44,6.57-4.65.16.87-.12,2.87-2.8,4.95,1.68-1.4,1.87-.67,3.08-1a5,5,0,0,0,3.43-3c.34,1.86-.36,3.06-1.67,4.41a8.77,8.77,0,0,0,4.69-3.89,6.71,6.71,0,0,1-.86,3.77,8.38,8.38,0,0,0,4.21-4.19,17.64,17.64,0,0,1,.28,4.86,6,6,0,0,1-2.24,4.17,8,8,0,0,1-2.4,1,41.1,41.1,0,0,1-10.21,1.66A4,4,0,0,1,242.9,206Z" style="fill:#e0e0e0"></path><path d="M243.86,218.92a5.26,5.26,0,0,0,2.19,3.05c1.41.91,2.68-.56,2.58-2.2-.09-1.47-1.18-3.45-2.73-3.69S243.45,217.36,243.86,218.92Z" style="fill:#f0f0f0"></path><path d="M255.22,216.38c0,.48.23.89.55.9s.54-.35.58-.83-.23-.89-.55-.91S255.22,215.9,255.22,216.38Z" style="fill:#e0e0e0"></path><path d="M260.66,216.65c0,.48.24.89.56.9s.57-.36.58-.83-.24-.89-.56-.9S260.67,216.17,260.66,216.65Z" style="fill:#e0e0e0"></path><path d="M254.18,214.63a.31.31,0,0,1-.13-.06.29.29,0,0,1,0-.4,2.71,2.71,0,0,1,2.35-1,.28.28,0,0,1,.25.31h0a.29.29,0,0,1-.33.24,2.19,2.19,0,0,0-1.83.81A.28.28,0,0,1,254.18,214.63Z" style="fill:#e0e0e0"></path><path d="M260.74,213.52a.33.33,0,0,1,0-.14.29.29,0,0,1,.32-.25,2.69,2.69,0,0,1,2.16,1.36.28.28,0,0,1-.13.38.28.28,0,0,1-.37-.13,2.15,2.15,0,0,0-1.72-1A.31.31,0,0,1,260.74,213.52Z" style="fill:#e0e0e0"></path></g><path d="M254.17,279.88l-16.67-2.53s-.51-.41.64-.47,15.92.12,15.92.12Z" style="fill:#f0f0f0"></path><path d="M254.17,279.88l-16.26-2.53s-.52-.41.64-.46,15.51.11,15.51.11Z" style="fill:#f0f0f0"></path><path d="M254.17,279.88l-16.26-2.53s-.52-.41.64-.46,15.51.11,15.51.11Z" style="fill:#fff;opacity:0.2"></path><path d="M250.53,271.84l2.61.82-3.79,5.24s-5.49-2-4.33-4.43l1.4-.77C247.62,272,249.13,271.34,250.53,271.84Z" style="fill:#f0f0f0"></path><polygon points="255.42 276.34 252.75 278.92 249.35 277.9 253.14 272.66 255.42 276.34" style="fill:#f0f0f0"></polygon><path d="M236.43,248.92c-1.92,4.91-2.89,7.27-1,10s12,10.5,14,13.27l-3.73,2.53q-6.15-3.84-12.37-7.55c-3-1.8-6.25-3.77-7.71-7-2.09-4.59-.55-8.8,2.37-14.44C230.51,245.45,236.43,248.92,236.43,248.92Z" style="fill:#f0f0f0"></path><path d="M236.69,230.23c5.69-.79,8.42,4.13,5.65,11.37A68.6,68.6,0,0,1,237,252.9l-12.18-5.53C227.15,240.2,230.87,231.05,236.69,230.23Z" style="fill:#e0e0e0"></path><rect x="252.33" y="302.89" width="3.54" height="52.14" style="fill:#e0e0e0"></rect><path d="M230.61,296.52h35.63a0,0,0,0,1,0,0v6.37a0,0,0,0,1,0,0H225.61a0,0,0,0,1,0,0v-1.36A5,5,0,0,1,230.61,296.52Z" style="fill:#f0f0f0"></path><rect x="229.61" y="302.89" width="3.54" height="52.14" style="fill:#e0e0e0"></rect><rect x="241.86" y="302.89" width="3.54" height="52.14" style="fill:#f0f0f0"></rect><rect x="262.38" y="302.89" width="3.54" height="52.14" style="fill:#f0f0f0"></rect><rect x="177.7" y="302.59" width="3.54" height="52.14" style="fill:#e0e0e0"></rect><path d="M156,296.23h35.63a0,0,0,0,1,0,0v6.37a0,0,0,0,1,0,0H151a0,0,0,0,1,0,0v-1.36A5,5,0,0,1,156,296.23Z" style="fill:#f0f0f0"></path><rect x="154.98" y="302.59" width="3.54" height="52.14" style="fill:#e0e0e0"></rect><rect x="167.23" y="302.59" width="3.54" height="52.14" style="fill:#f0f0f0"></rect><rect x="187.75" y="302.59" width="3.54" height="52.14" style="fill:#f0f0f0"></rect><g id="freepik--character-inject-2--inject-4"><polygon points="209.08 352.16 214.7 352.56 217.58 339.7 211.96 339.3 209.08 352.16" style="fill:#f0f0f0"></polygon><path d="M215.68,350.34l-6.21-1.2a.41.41,0,0,0-.5.27v0l-1.25,4.86a1,1,0,0,0,.78,1.17c2.17.38,3.1.44,5.86.77,1.71.19,5.77.66,8.14.64s2.28-2.35,1.28-2.56c-2.38-.47-5.9-1.93-7.22-3.46A1.53,1.53,0,0,0,215.68,350.34Z" style="fill:#e0e0e0"></path><polygon points="211.95 339.3 217.58 339.7 216.19 345.9 210.61 345.31 211.95 339.3" style="opacity:0.1;isolation:isolate"></polygon><path d="M182.59,277.2s42.41,5.53,42.35,21.69a300.82,300.82,0,0,1-7.21,44.41l-7.41-2s-1.81-26.16,1.24-39.39c-11.35-3.37-43.9-3.47-47.25-13-2.75-7.77-1.2-12-1.2-12Z" style="fill:#e6e6e6"></path><polygon points="207.13 343.26 219.05 344.85 220.67 340.56 207.49 338.64 207.13 343.26" style="fill:#e0e0e0"></polygon><path d="M218.62,350.49a2.31,2.31,0,0,0-1.58.08l-.59.21L216,351a.1.1,0,0,0-.07.07v0a.13.13,0,0,0,0,.1s0,0,0,0l0,0h0a6.15,6.15,0,0,0,1.39.47h0a1.55,1.55,0,0,0,1.1-.09.78.78,0,0,0,.29-.67A.52.52,0,0,0,218.62,350.49Zm-.21.88a2,2,0,0,1-1.45-.09,5.34,5.34,0,0,1-.55-.2l.25-.09a3.16,3.16,0,0,1,1.83-.28.22.22,0,0,1,.09.22A.42.42,0,0,1,218.41,351.37Z" style="fill:#f0f0f0"></path><path d="M217.4,348.87a.64.64,0,0,0-.6.08,2.53,2.53,0,0,0-.75,1.53c-.06.26-.09.47-.1.55v0a.13.13,0,0,0,0,.1l0,0h0l0,0h0l.08,0a2.05,2.05,0,0,0,.47-.26,3.42,3.42,0,0,0,.43-.36,2,2,0,0,0,.75-1.23A.5.5,0,0,0,217.4,348.87Zm-1,1.86-.18.11,0-.22a2.59,2.59,0,0,1,.67-1.47.36.36,0,0,1,.3-.06s0,0,.05,0c.19.06.22.15.22.23C217.5,349.71,216.93,350.37,216.41,350.73Z" style="fill:#f0f0f0"></path><polygon points="191.16 356.55 196.54 357.38 198.49 344.3 193.1 343.46 191.16 356.55" style="fill:#f0f0f0"></polygon><path d="M196.92,355.79l-6.28-.73a.42.42,0,0,0-.47.34l-.88,4.93a1,1,0,0,0,.87,1.11c2.2.19,3.26.21,6,.51a51.77,51.77,0,0,0,7.4.62c2.36-.11,2.2-2.43,1.19-2.61a15.44,15.44,0,0,1-6.92-3.75A1.56,1.56,0,0,0,196.92,355.79Z" style="fill:#e0e0e0"></path><path d="M200.12,356.13a.47.47,0,0,0-.26-.4,2.08,2.08,0,0,0-1.52.18l-.57.24-.46.23a.13.13,0,0,0-.06.07.21.21,0,0,0,0,.06.13.13,0,0,0,.09.11h0a6.77,6.77,0,0,0,1.39.36h0a1.52,1.52,0,0,0,1.1-.18A.72.72,0,0,0,200.12,356.13Zm-.41.48c-.2.19-.71.19-1.38,0a4.26,4.26,0,0,1-.61-.16h0l.06,0,.24-.1c.65-.3,1.44-.55,1.74-.39a.24.24,0,0,1,.13.2A.48.48,0,0,1,199.71,356.61Z" style="fill:#f0f0f0"></path><path d="M198.53,354.23a.62.62,0,0,0-.6.11,2.54,2.54,0,0,0-.63,1.53c0,.26-.05.48-.05.58a.21.21,0,0,0,0,.06.14.14,0,0,0,0,.11h.16a1,1,0,0,0,.27-.16l0,0a1.25,1.25,0,0,0,.19-.15l.39-.39a2,2,0,0,0,.61-1.23A.46.46,0,0,0,198.53,354.23Zm-.82,1.88-.19.14a1.3,1.3,0,0,1,0-.26,2.48,2.48,0,0,1,.54-1.46.34.34,0,0,1,.29-.08h.07c.18,0,.23.14.22.22C198.7,355,198.2,355.71,197.71,356.11Z" style="fill:#f0f0f0"></path><polygon points="192.65 343.25 198.82 343.34 197.4 351.47 192.03 351.13 192.65 343.25" style="opacity:0.1;isolation:isolate"></polygon><path d="M168.84,277s40.94,10.61,39.31,22.77c-.51,20.26-7.51,45.78-7.51,45.78l-10.31.27s-.72-25.2,1.78-43.18c-10.47-.14-31.94-.77-38.18-7.15-5.44-7-1.47-18.67-1.47-18.67Z" style="fill:#f0f0f0"></path><polygon points="188.77 348.92 201.1 350.1 202.32 344.84 188.75 343.81 188.77 348.92" style="fill:#e0e0e0"></polygon></g><path d="M180.21,280l-16.67-2.53s-.51-.41.64-.47,15.92.12,15.92.12Z" style="fill:#f0f0f0"></path><path d="M180.21,280,164,277.49s-.52-.41.64-.46,15.51.11,15.51.11Z" style="fill:#f0f0f0"></path><path d="M180.21,280,164,277.49s-.52-.41.64-.46,15.51.11,15.51.11Z" style="fill:#fff;opacity:0.2"></path><path d="M206.23,270.49l2.54.92L207,277.86a22.09,22.09,0,0,1-3.49-2.91,2.66,2.66,0,0,1-.51-2.81l.1-.25A2.51,2.51,0,0,1,206.23,270.49Z" style="fill:#f0f0f0"></path><polygon points="213.13 274.96 208.99 279.25 206.95 277.87 208.76 271.42 213.13 274.96" style="fill:#f0f0f0"></polygon><path d="M182.65,234c1.35,3.63,2.73,7.37,4.15,11,.71,1.81,1.41,3.63,2.16,5.41s1.49,3.52,2.3,5.15c.4.82.8,1.6,1.21,2.31A9.76,9.76,0,0,0,195,261c.65.59,1.37,1.16,2.1,1.77,2.95,2.36,6.18,4.82,9.24,7.41l-2.64,5.13A64.46,64.46,0,0,1,192,270.77c-1-.49-1.91-1-2.9-1.65a20.9,20.9,0,0,1-3.1-2.27,20.56,20.56,0,0,1-2.63-3.19c-.68-1-1.29-2-1.86-2.92a104.37,104.37,0,0,1-5.56-11.4c-1.62-3.83-3.06-7.62-4.37-11.61Z" style="fill:#e6e6e6"></path><path d="M182.65,234c1.35,3.63,2.73,7.37,4.15,11,.71,1.81,1.41,3.63,2.16,5.41s1.49,3.52,2.3,5.15c.4.82.8,1.6,1.21,2.31A9.76,9.76,0,0,0,195,261c.65.59,1.37,1.16,2.1,1.77,2.95,2.36,6.18,4.82,9.24,7.41l-2.64,5.13A64.46,64.46,0,0,1,192,270.77c-1-.49-1.91-1-2.9-1.65a20.9,20.9,0,0,1-3.1-2.27,20.56,20.56,0,0,1-2.63-3.19c-.68-1-1.29-2-1.86-2.92a104.37,104.37,0,0,1-5.56-11.4c-1.62-3.83-3.06-7.62-4.37-11.61Z" style="fill:#e0e0e0"></path><path d="M156.72,230.61c-7.8.42-7.78,6.78-7.77,6.87,0,6.91,2.44,41.85,2.51,44.2l30.87.49c.17-19.86,1.77-37.47,1.36-46.6a5.43,5.43,0,0,0-4.13-4.1c-1.17-.26-2.58-.53-4.06-.74-.52-.09-1.05-.15-1.59-.2a112.64,112.64,0,0,0-13.12-.21c-.83,0-1.67.07-2.49.14Z" style="fill:#e6e6e6"></path><path d="M156.72,230.61c-7.8.42-7.78,6.78-7.77,6.87,0,6.91,2.44,41.85,2.51,44.2l30.87.49c.17-19.86,1.77-37.47,1.36-46.6a5.43,5.43,0,0,0-4.13-4.1c-1.17-.26-2.58-.53-4.06-.74-.52-.09-1.05-.15-1.59-.2a112.64,112.64,0,0,0-13.12-.21c-.83,0-1.67.07-2.49.14Z" style="fill:#f5f5f5;opacity:0.1"></path><path d="M170.54,227.28c2.62.51,4.81,2.25,6.89,3.94a1.79,1.79,0,0,1,.62.72,1.81,1.81,0,0,1,0,.77c-.13,1,.49,3.43.37,4.45-.89-.2-2.36-2.41-2.46-3.32a13.1,13.1,0,0,1-2.35,3.08,3,3,0,0,1-1,.7c-.67.27-3-1.18-5.17-1.83-2.52-.75-3.24,3.19-3.62,3.11-.89-.18-6.5-7.89-6.24-8.76a5,5,0,0,1,1.65-2.11,6.31,6.31,0,0,1,2.77-1.69,33.92,33.92,0,0,1,6.09-.07Z" style="fill:#fafafa"></path><path d="M162.13,216.59c.67,3.74,1.3,10.1-.43,13.7a2.11,2.11,0,0,0,1.06,2.8,71,71,0,0,0,9.58,3.26,9.74,9.74,0,0,0,.9-.94,2.59,2.59,0,0,0-.87-3.95c-3-1.6-2.77-4.68-2-7.59Z" style="fill:#f0f0f0"></path><path d="M165.5,219.59l4.88,4.29a15.29,15.29,0,0,0-.46,2.41c-1.86-.3-4.4-2.39-4.57-4.34A6.26,6.26,0,0,1,165.5,219.59Z" style="opacity:0.1;isolation:isolate"></path><path d="M158.93,209.06a20.52,20.52,0,0,0,5.86,13.46c4.44,4.65,11.81,2,13.32-3.86,1.36-5.31.68-14.14-5.09-16.58-4.11-1.78-11.67-.82-13.44,3.3A8,8,0,0,0,158.93,209.06Z" style="fill:#f0f0f0"></path><path d="M155.7,213.75a2.54,2.54,0,0,0,2.16,1.76,2.14,2.14,0,0,0,.56,2.16,3.8,3.8,0,0,0,2.1,1,1.84,1.84,0,0,0,1.36,2.1,1.53,1.53,0,0,0,1.74-1.61c0-.21-.37-.56-.74-.9l3.36-2-.66-5.65,2.51-2.17.55-3.93s-7.88-.72-10.16-.57c-1.28.07-1.63,2-1.68,3.63a.22.22,0,0,0-.12,0c-1.39.12-.71,3-.16,3.61A2.54,2.54,0,0,0,155.7,213.75Z" style="fill:#e0e0e0"></path><path d="M159.13,215.61a5.68,5.68,0,0,0,3,3.08c1.83.76,3-.82,2.67-2.69-.27-1.67-1.56-4.07-3.49-4.05A2.55,2.55,0,0,0,159.13,215.61Z" style="fill:#f0f0f0"></path><path d="M170.69,211.81c0,.48.24.87.56.88s.58-.38.58-.86-.24-.88-.56-.89S170.7,211.32,170.69,211.81Z" style="fill:#e0e0e0"></path><path d="M176.15,211.89c0,.49.25.88.56.89s.58-.38.59-.87-.24-.88-.56-.88S176.16,211.41,176.15,211.89Z" style="fill:#e0e0e0"></path><path d="M169,210a.26.26,0,0,0,.28-.1,2.28,2.28,0,0,1,1.84-.92.28.28,0,0,0,.3-.26.27.27,0,0,0-.26-.3h0a2.78,2.78,0,0,0-2.32,1.13.29.29,0,0,0,0,.4A.18.18,0,0,0,169,210Z" style="fill:#e0e0e0"></path><path d="M178.53,210.05a.3.3,0,0,0,.16,0,.3.3,0,0,0,.15-.39,2.86,2.86,0,0,0-2.05-1.63.28.28,0,0,0-.32.24.28.28,0,0,0,.24.32h0a2.27,2.27,0,0,1,1.58,1.31A.28.28,0,0,0,178.53,210.05Z" style="fill:#e0e0e0"></path><path d="M159.64,236.43c2.46,6.64,2.17,11-.23,13.27-.33-.83-.65-1.66-1-2.5-1.28-3.13-2.71-6.34-4.32-9.55Z" style="fill:#ebebeb;opacity:0.2;isolation:isolate"></path><path d="M178.3,273.77l5.84.59-3.74,6.36s-4.85-1.6-4.29-4.26Z" style="fill:#f0f0f0"></path><polygon points="187.62 277.69 184.29 282.81 180.38 280.74 184.12 274.38 187.62 277.69" style="fill:#f0f0f0"></polygon><path d="M158.37,234.22a4.58,4.58,0,0,1,1.39,2.87l.11,1.22.32,3c.23,2,.49,4,.77,5.93a65.47,65.47,0,0,0,2.54,11.15c.22,1.91,3.41,4.82,6.35,7.42s6.33,5.22,9.53,7.84l-2.8,5.05c-2.1-.77-4.07-1.63-6.05-2.57s-3.91-2-5.84-3.09a48.54,48.54,0,0,1-5.72-3.91,22.45,22.45,0,0,1-2.88-2.72,13.28,13.28,0,0,1-1.48-2.08c-.28-.49-.37-.71-.52-1s-.28-.56-.41-.84a47.76,47.76,0,0,1-2.48-6.64c-.68-2.22-1.18-4.4-1.63-6.59-.39-1.93-.79-9.9-.91-12.6a4.54,4.54,0,0,1,.19-1.51l.2-.67a4.56,4.56,0,0,1,3.94-3.23h0a4.57,4.57,0,0,1,3.58,1.25Z" style="fill:#e6e6e6"></path><path d="M158.37,234.22a4.58,4.58,0,0,1,1.39,2.87l.11,1.22.32,3c.23,2,.49,4,.77,5.93a65.47,65.47,0,0,0,2.54,11.15c.22,1.91,3.41,4.82,6.35,7.42s6.33,5.22,9.53,7.84l-2.8,5.05c-2.1-.77-4.07-1.63-6.05-2.57s-3.91-2-5.84-3.09a48.54,48.54,0,0,1-5.72-3.91,22.45,22.45,0,0,1-2.88-2.72,13.28,13.28,0,0,1-1.48-2.08c-.28-.49-.37-.71-.52-1s-.28-.56-.41-.84a47.76,47.76,0,0,1-2.48-6.64c-.68-2.22-1.18-4.4-1.63-6.59-.39-1.93-.79-9.9-.91-12.6a4.54,4.54,0,0,1,.19-1.51l.2-.67a4.56,4.56,0,0,1,3.94-3.23h0a4.57,4.57,0,0,1,3.58,1.25Z" style="fill:#e0e0e0"></path></g><g id="freepik--Shadow--inject-4"><ellipse id="freepik--path--inject-4" cx="250" cy="415.69" rx="193.89" ry="11.32" style="fill:#f5f5f5"></ellipse></g><g id="freepik--Character--inject-4"><g id="freepik--Character--inject-166--inject-4"><path d="M382.53,165.69c-.24.68-.43,1.16-.66,1.74s-.44,1.08-.68,1.61c-.46,1.07-1,2.12-1.49,3.15a59.85,59.85,0,0,1-3.52,6.12,44.77,44.77,0,0,1-4.51,5.84,29.42,29.42,0,0,1-2.84,2.74c-.51.44-1.08.84-1.64,1.27l-.91.61-.59.36c-.22.14-.44.25-.65.37a13.83,13.83,0,0,1-5,1.35,21.26,21.26,0,0,1-4.22-.06,35.81,35.81,0,0,1-7.21-1.69A57.69,57.69,0,0,1,336.25,183l2.61-5.54a108.7,108.7,0,0,0,12,2.63,32.13,32.13,0,0,0,5.54.39,10.46,10.46,0,0,0,2.23-.27,3,3,0,0,0,1.18-.51v-.05l.08-.08.41-.36c.27-.26.55-.51.84-.84.55-.58,1.1-1.23,1.64-1.92a46.15,46.15,0,0,0,3.06-4.66c.95-1.69,1.88-3.41,2.74-5.2.44-.85.85-1.8,1.27-2.7l.61-1.35,1.6-3.71Z" style="fill:#407BFF"></path><path d="M338.45,182.18l-5.36.68v-7.21s5.31.61,7.54,3.28Z" style="fill:#ffb573"></path><polygon points="326.52 182.43 327.26 177.49 333.11 175.65 333.09 182.86 326.52 182.43" style="fill:#ffb573"></polygon><path d="M439.45,367.46a11.89,11.89,0,0,1,2-3.47h0s3.36-6.46,0-17.26l4.82-4.68a5.32,5.32,0,0,1,3.74,1.34,17.6,17.6,0,0,1,1.87,2.19c2,3.08,6.39,10.14,6.39,10.14l-.73.46a62.81,62.81,0,0,0-4.65-6c-1.74-1.77-1.55,1.53-.8,4.31s-.85,7.29-5.5,10.43C441.2,368.6,438.79,369.81,439.45,367.46Z" style="fill:#263238"></path><path d="M448,352c.09,1.86,1.5,5.07,0,7.6a9,9,0,0,1-6.46,4.36s2.63-5,.92-13.64a35,35,0,0,0-.92-3.62s4.21-3.44,6.2-4l1.2,2.83a26.14,26.14,0,0,1-.83,5.68A2.12,2.12,0,0,0,448,352Z" style="fill:#ffb573"></path><path d="M448.85,345.57a26.14,26.14,0,0,1-.83,5.68,2.12,2.12,0,0,0-.07.78l-4,2-1.54-3.63-5.47-12.93L444,334l3.69,8.73Z" style="fill:#ffb573"></path><path d="M444,334l-7.06,3.4,2.78,6.58h.09a9.34,9.34,0,0,0,7.05-3.22h0Z" style="opacity:0.2;isolation:isolate"></path><path d="M384.29,366a11.68,11.68,0,0,1,3.56-1.83h0s6.31-3.63,9.3-14.54l6.7-1.69a4.81,4.81,0,0,1,2.62,2.78,27.86,27.86,0,0,1,.11,3.54c.06,3.69-.08,13.25-.08,13.25h-.87c-.09-2.52-.32-6.28-.7-8.77s-2.13.44-3,3.19-4.64,5.68-10.26,5.82C385.1,367.88,382.43,367.59,384.29,366Z" style="fill:#263238"></path><path d="M403,353.33a13,13,0,0,1-2.75,3.64c-1.3,1.09-1.54,5.49-4.62,7a9.09,9.09,0,0,1-7.79.19s4.76-2.74,8-10.61a9.35,9.35,0,0,0,.4-5.75l-3.07-12.32L401.3,334l2.79,14.83C404.21,351,403.81,352.38,403,353.33Z" style="fill:#ffb573"></path><path d="M392.27,330.77l2.42,10.9.72.13a8.75,8.75,0,0,0,7-1.81h0l-1.91-10.57Z" style="opacity:0.2;isolation:isolate"></path><path d="M411.32,158c0-.31-.06-.63-.11-.94a10.22,10.22,0,0,0-11.75-8.42h-.18c-.69.11-1.39.24-2.08.38a101.47,101.47,0,0,0-13.95,3.55c-.78.24-1.57.54-2.35.84-1,.41-2.1.84-3.09,1.26a10.22,10.22,0,0,0-5.91,12.07,93.35,93.35,0,0,0,9.66,24.89c1.46,2.57,1.92,7.89,3.21,11.09L415.49,195l.05.06C413.53,185.4,412.1,168.85,411.32,158Z" style="fill:#407BFF"></path><path d="M411.32,158c0-.31-.06-.63-.11-.94a10.22,10.22,0,0,0-11.75-8.42h-.18c-.69.11-1.39.24-2.08.38a101.47,101.47,0,0,0-13.95,3.55c-.78.24-1.57.54-2.35.84-1,.41-2.1.84-3.09,1.26a10.22,10.22,0,0,0-5.91,12.07c1.45,5.37,4.5,11.61,9.87,25.43,1,2.54,1.83,7.64,3,10.55L415.49,195l.05.06C413.53,185.4,412.1,168.85,411.32,158Z" style="fill:#fff;opacity:0.8"></path><path d="M384.77,202.76S382,240.46,381.88,271c-.05,24.25,9.67,67.34,9.67,67.34A16.91,16.91,0,0,0,404.11,336c.26,1.8.06-32.77-2.38-56.07a33,33,0,0,1,.59-10.48c7.05-32.07,16.61-61.76,7.12-73.07Z" style="fill:#263238"></path><path d="M400.65,225.3l12.44-7.92c-1.14,12.09-5.11,27.41-8.9,43.75C400,248.51,397.72,235.23,400.65,225.3Z" style="opacity:0.30000000000000004;isolation:isolate"></path><path d="M390.37,203.45s10,30.29,16.87,59.45c3.4,21,28.94,77.73,28.94,77.73l3.88-.94a10.36,10.36,0,0,0,4.86-2.74l1.26-1.28s-6.05-28.66-12.29-47.54a88.58,88.58,0,0,1-4.4-23.6c-1.4-29.77-3.8-58.71-15.4-68.1Z" style="fill:#263238"></path><path d="M397.86,148.77s-1.49,36.44,9,83.19c13.49-1.46,21.64-5.61,21.64-5.61s-4-25.44-13-38.07c-1.87-9.07-1.54-28.63-2.73-35.71a5.7,5.7,0,0,0-5.13-4.7A42.92,42.92,0,0,0,397.86,148.77Z" style="fill:#407BFF"></path><path d="M383.09,152.11s-.95,17.28,13.22,81.25c-4.26,2.53-13.65,2.19-13.65,2.19s-.89-21.49-.25-38.72c.31-8.38-5.8-9.32-9.66-18.37-2.19-10.6-1.6-19.33-.14-20.62C375,155.74,378.83,152.86,383.09,152.11Z" style="fill:#407BFF"></path><path d="M397.7,148.68s.09,14.87.84,25.73c.76-7.74,3.11-15.23,2.93-17.65a18.32,18.32,0,0,1-2.33-1.31,14.19,14.19,0,0,1,2.73-2,48.16,48.16,0,0,0-.18-5.47C399.54,148.31,397.7,148.68,397.7,148.68Z" style="opacity:0.7000000000000001;isolation:isolate"></path><path d="M383.22,152s-.06,9.34,2.39,25.67c-2.72-6.74-6.14-13.15-6-15.74a30.91,30.91,0,0,0,2.24-2.31,8.2,8.2,0,0,0-2.64-.91,52.69,52.69,0,0,1,.16-5.76C381.46,152.35,383.22,152,383.22,152Z" style="opacity:0.7000000000000001;isolation:isolate"></path><path d="M411.79,150.07c1.69,1.84,3.48,3.79,5.26,5.69s3.57,3.78,5.38,5.56,3.66,3.52,5.47,5.06a30.36,30.36,0,0,0,2.65,2,11.84,11.84,0,0,0,1.11.7c.31.18.53.25.4.25h-1.57a4.68,4.68,0,0,0,2.66-1.1,23.6,23.6,0,0,0,3.6-3.32,53,53,0,0,0,3.47-4.3c1.12-1.5,2.22-3.14,3.25-4.65l5.67,2.28a44.71,44.71,0,0,1-2,6.17,43.65,43.65,0,0,1-2.89,5.91A27.81,27.81,0,0,1,440,176a18.69,18.69,0,0,1-3.3,2.58,13.08,13.08,0,0,1-4.62,1.77l-.67.12-.9-.12a13.25,13.25,0,0,1-3.43-.95,22.89,22.89,0,0,1-2.44-1.19,38.12,38.12,0,0,1-3.94-2.58,76.34,76.34,0,0,1-6.66-5.51c-2.08-1.89-4.06-3.86-6-5.84s-3.75-4-5.59-6.21Z" style="fill:#407BFF"></path><path d="M444.38,159.8a10.79,10.79,0,0,1-1.24-7.42l9,1.14-2.93,5.08Z" style="fill:#ffb573"></path><polygon points="452.12 153.52 443.14 152.38 447.02 147.17 453.56 149.64 452.12 153.52" style="fill:#ffb573"></polygon></g><path d="M382.37,154.51c-.56,2.05-1.34,5.73-.38,7.13.07-.8,1.54-3.52,2.79-2.39a7.53,7.53,0,0,1,1.1,1.16l2.4,3.4c.35.49.79,1,1.4,1.05s1.19-.72,1.52-1.36l2-4a6,6,0,0,1,1.84-2.43c.86-.56,4.13.34,4.71,1.2,0-2.36.26-7.37,0-8.73s-3.11-3.09-4.48-3.29a4.9,4.9,0,0,0-2.65.63C388.94,148.61,383.58,150.11,382.37,154.51Z" style="fill:#fff"></path><path d="M392.86,140c.65,3.84,1.93,7.68,4.32,9.07,0,0,2.61,2.93-5.18,9.27-1.28,1.14-3.21,2.37-4.49,1.23-2.68-2.47-2.83-4.85-2.52-6.37a4.54,4.54,0,0,1,1.27-2.17c1.7-1.76.46-3.64-1.54-9.47l3.63-2.53a2.53,2.53,0,0,1,3.54-.54A2.47,2.47,0,0,1,392.86,140Z" style="fill:#ffb573"></path><path d="M388.36,139a2.53,2.53,0,0,1,4.42.65,16.35,16.35,0,0,1-6.06,7.74c-.22-1.55-1.51-3.05-2.15-4.47-.21-.47.4-.93.15-1.38Z" style="opacity:0.2;isolation:isolate"></path><path d="M387,112.88a7.22,7.22,0,0,0-6.93-.86,14.55,14.55,0,0,0-5.78,4.33,25.18,25.18,0,0,0-5.84,11.2A18.85,18.85,0,0,0,369.86,140a10.35,10.35,0,0,0,4,4.51,9.37,9.37,0,0,0,9.17-.52,16.94,16.94,0,0,0,6.16-7.22c1.87-3.75,4.81-12.94,1.08-19.57A14.43,14.43,0,0,0,387,112.88Z" style="fill:#263238"></path><path d="M394.1,139.22c-3.31,1.56-5.07,2.91-5.9,2.29-1.06-.8,1.67-5.11,1.83-6.43a9.87,9.87,0,0,1,4.17-7,8.09,8.09,0,0,1,8-.57,5.79,5.79,0,0,1,3,3.68c.37,1.64-1,2.78-2.13,3.82C400.64,137.28,397.15,137.77,394.1,139.22Z" style="fill:#263238"></path><path d="M394.78,125.65c.27,7.8.56,11.1-2.9,15.54-5.21,6.68-14.65,5.52-17.24-2-2.31-6.77-2.38-18.39,4.77-22.39S394.49,117.84,394.78,125.65Z" style="fill:#ffb573"></path><path d="M392,126c-1.53.89-.86,8.2,2.88,7.69S397,123.12,392,126Z" style="fill:#263238"></path><path d="M397.19,132.65a5.83,5.83,0,0,1-2.18,3.79c-1.59,1.22-3.07,0-3.21-1.92-.12-1.73.55-4.38,2.42-4.85S397.44,130.81,397.19,132.65Z" style="fill:#ffb573"></path><path d="M386.06,112.12c-10.5,2.52-9.27,9.53.17,13.44,5.25,2.15,12.37,7.43,8.66,16.85-1.18,3,15.46-8.94,10.17-15C394.89,115.78,394.07,108.86,386.06,112.12Z" style="fill:#263238"></path><path d="M382.22,129.55c.07.63-.2,1.18-.62,1.23s-.78-.42-.84-1.05.2-1.19.62-1.23S382.16,128.92,382.22,129.55Z" style="fill:#263238"></path><path d="M375.21,130.39c.07.63-.2,1.18-.62,1.23s-.78-.42-.84-1.05.2-1.18.62-1.23S375.15,129.76,375.21,130.39Z" style="fill:#263238"></path><path d="M374.55,129.35l-1.53-.26S373.91,130.18,374.55,129.35Z" style="fill:#263238"></path><path d="M377.65,131a19.63,19.63,0,0,1-1.7,4.88,2.92,2.92,0,0,0,2.5,0Z" style="fill:#ed893e"></path><path d="M384.24,126.7a.25.25,0,0,1-.16-.1,2.86,2.86,0,0,0-2.41-.95.36.36,0,0,1-.42-.29h0a.38.38,0,0,1,.31-.43,3.51,3.51,0,0,1,3.11,1.17.38.38,0,0,1,0,.53A.36.36,0,0,1,384.24,126.7Z" style="fill:#263238"></path><path d="M372.14,127.36l0-.06a.37.37,0,0,1,.09-.52,3.59,3.59,0,0,1,3.31-.49.39.39,0,0,1,.19.5.38.38,0,0,1-.48.2,2.84,2.84,0,0,0-2.64.4A.38.38,0,0,1,372.14,127.36Z" style="fill:#263238"></path><path d="M381.56,128.51l-1.53-.27S380.91,129.34,381.56,128.51Z" style="fill:#263238"></path><path d="M378.43,137.74a36.82,36.82,0,0,1,7.66-1.83,4.57,4.57,0,0,1-4.21,4.31A3,3,0,0,1,378.43,137.74Z" style="fill:#263238"></path><path d="M383,138.47a4.84,4.84,0,0,0-3,1.47,2.9,2.9,0,0,0,1.94.28,4.84,4.84,0,0,0,3-1.47A2.87,2.87,0,0,0,383,138.47Z" style="fill:#ff5652"></path><path d="M378.68,137.64a1.32,1.32,0,0,0,1.07.82,26.63,26.63,0,0,0,5-1.34,1.59,1.59,0,0,0,1.12-1.17A42.6,42.6,0,0,0,378.68,137.64Z" style="fill:#fff"></path></g><g id="freepik--Platform--inject-4"><path d="M344.45,223.85H314.68a5.2,5.2,0,0,1-5.07-4.66l-1.7-19.46a4.21,4.21,0,0,1,4.25-4.66h29.77a5.2,5.2,0,0,1,5.07,4.66l1.7,19.46A4.2,4.2,0,0,1,344.45,223.85Z" style="fill:#407BFF"></path><path d="M343.39,223.85H313.62a5.2,5.2,0,0,1-5.07-4.66l-1.7-19.46a4.21,4.21,0,0,1,4.25-4.66h29.77a5.2,5.2,0,0,1,5.07,4.66l1.7,19.46A4.2,4.2,0,0,1,343.39,223.85Z" style="fill:#263238"></path><path d="M343.39,223.85H313.62a5.2,5.2,0,0,1-5.07-4.66l-1.7-19.46a4.21,4.21,0,0,1,4.25-4.66h29.77a5.2,5.2,0,0,1,5.07,4.66l1.7,19.46A4.2,4.2,0,0,1,343.39,223.85Z" style="fill:#fff;opacity:0.7000000000000001;isolation:isolate"></path><path d="M329.37,210.81a2.8,2.8,0,0,1-2.84,3.11,3.46,3.46,0,0,1-3.38-3.11A2.8,2.8,0,0,1,326,207.7,3.46,3.46,0,0,1,329.37,210.81Z" style="fill:#fff"></path><path d="M351.25,223.85h-1.69V194.69a57.11,57.11,0,0,1,13.16-36.41l8.18-9.84,1.3,1.08L364,159.36a55.39,55.39,0,0,0-12.77,35.33Z" style="fill:#263238"></path><path d="M373,150.34a3.25,3.25,0,1,1-3.25-3.25A3.25,3.25,0,0,1,373,150.34Z" style="fill:#263238"></path><g id="freepik--Cabinet--inject-166--inject-4"><polygon points="303.4 226.98 397.23 226.98 389.93 367.5 310.7 367.5 303.4 226.98" style="fill:#407BFF"></polygon><polygon points="303.4 226.98 397.23 226.98 389.93 367.5 310.7 367.5 303.4 226.98" style="fill:#fff;opacity:0.5"></polygon><polygon points="361.1 226.98 397.23 226.98 389.93 367.5 359.42 367.5 361.1 226.98" style="opacity:0.1;isolation:isolate"></polygon><path d="M318.64,358.6h32.51l.13-119.4H313.75Z" style="fill:#407BFF"></path><path d="M399.8,227h-99a3.13,3.13,0,0,1-3.13-3.13h0a3.15,3.15,0,0,1,3.13-3.13h99a3.16,3.16,0,0,1,3.14,3.13h0A3.14,3.14,0,0,1,399.8,227Z" style="fill:#407BFF"></path><path d="M399.8,227H358.51a3.14,3.14,0,0,1-3.14-3.13h0a3.16,3.16,0,0,1,3.14-3.13H399.8a3.16,3.16,0,0,1,3.14,3.13h0A3.14,3.14,0,0,1,399.8,227Z" style="opacity:0.30000000000000004;isolation:isolate"></path></g><rect x="297.7" y="367.5" width="154.35" height="24.92" style="fill:#407BFF"></rect><rect x="372.03" y="367.63" width="80.02" height="24.79" style="opacity:0.30000000000000004;isolation:isolate"></rect></g><g id="freepik--Audience--inject-4"><g id="freepik--group--inject-4"><path d="M81.8,215.87c-.09.62.17,1.17.58,1.23s.81-.39.89-1-.17-1.18-.56-1.24S81.9,215.25,81.8,215.87Z" style="fill:#263238"></path><path d="M81.81,216.49A22.81,22.81,0,0,0,84,222.24a3.64,3.64,0,0,1-3,.12Z" style="fill:#a02724"></path><path d="M80.1,212.11a.35.35,0,0,0,.22,0A2.94,2.94,0,0,1,83,212a.38.38,0,0,0,.49-.18.36.36,0,0,0-.13-.46,3.66,3.66,0,0,0-3.36.09.37.37,0,0,0-.14.51.42.42,0,0,0,.27.18Z" style="fill:#263238"></path><path d="M61.89,220.86c1.12,5.69,2.23,16.12-1.75,19.92,0,0,1.56,5.77,12.14,5.77,11.63,0,5.56-5.77,5.56-5.77-6.35-1.52-5.33-6.23-4.22-10.65Z" style="fill:#ffb573"></path><path d="M61.27,211.57c-.63,7.7-1.38,12.18,1.91,16.65,4.94,6.73,17.38,5.31,19.07-3.83.69-8.77,1.93-17-5.1-21.15a10.53,10.53,0,0,0-15.88,8.33Z" style="fill:#ffb573"></path><path d="M81.16,213.53a12.38,12.38,0,0,1-3.36,3.63,6.71,6.71,0,0,1-2.44,1.09c-.56.11-2-.43-2.11.07-1.49,10.78-3.63,11.14-3.63,11.14a8.44,8.44,0,0,1-6.9-1.67A20.4,20.4,0,0,1,58,222.27a24.36,24.36,0,0,1-3.5-7.37,10.62,10.62,0,0,1,.9-7.94,6.87,6.87,0,0,1,6.76-3.4,5.84,5.84,0,0,0-1.35-.83,7.39,7.39,0,0,0-3.55-.56,3.37,3.37,0,0,1,5.55,1c2.23-1.61,7.27-3.73,11.87-3.07C86.19,201.77,82.84,210.93,81.16,213.53Z" style="fill:#263238"></path><path d="M70.84,218.89a8.8,8.8,0,0,0,3.28,4.55c2.07,1.44,3.54-.09,3.33-2.38-.2-2.1-1.5-5.29-3.75-5.84S70.19,216.67,70.84,218.89Z" style="fill:#ffb573"></path><path d="M88.34,270.35c-.65-2.62-1.24-5.26-1.78-7.89s-1-5.27-1.44-8l11-1.74c.9,5,2.9,10.36,4,15.34s3.76,16.78,4.17,17.93c.2.58.45,1.09.68,1.64l3.87,3.53-11.3,3.13a1.25,1.25,0,0,1-1.42-.56C94.89,291.61,91.61,285.07,88.34,270.35Z" style="fill:#ffb573"></path><path d="M119.18,314,120,317l2.42,2.9,8.25-1.66A27.15,27.15,0,0,0,129,314a2,2,0,0,0-.68-.75L123,309.69Z" style="fill:#ffb573"></path><polygon points="125.64 322.18 131.74 320.88 130.61 318.26 122.38 319.94 125.64 322.18" style="fill:#ffb573"></polygon><path d="M120.6,317.87c.47.53,0-.72.61-.46,2,.8,4.27-5.4,2.86-7-3.55-4-8.9-18.53-21-22a6.34,6.34,0,0,0-4.73.7,4.28,4.28,0,0,0-2.3,4C96.31,295.6,115.13,311.66,120.6,317.87Z" style="fill:#ffb573"></path><path d="M82.25,248c-3.32,6.49,3.5,28.48,3.5,28.48l16.35-4.59s-.22-10.86-4.09-19.31C93.61,242.94,85.9,241,82.25,248Z" style="fill:#407BFF"></path><path d="M58.09,267.7q-1-3.94-1.78-7.9c-.54-2.66-1-5.26-1.45-8l11-1.73c.91,5,2.91,10.35,4,15.34s3.75,16.78,4.17,17.92c.2.59.45,1.09.68,1.64l3.86,3.53-11.3,3.13a1.23,1.23,0,0,1-1.41-.56C64.64,289,61.36,282.42,58.09,267.7Z" style="fill:#ffb573"></path><path d="M88.92,311.29l.79,3.09,2.41,2.9,8.26-1.66a27,27,0,0,0-1.62-4.29,2,2,0,0,0-.67-.75L92.73,307Z" style="fill:#ffb573"></path><polygon points="95.39 319.52 101.49 318.22 100.35 315.61 92.12 317.28 95.39 319.52" style="fill:#ffb573"></polygon><path d="M90.35,315.21c.46.53,0-.72.61-.46,2,.8,4.27-5.4,2.86-7-3.55-4-8.9-18.52-21-22a6.44,6.44,0,0,0-4.73.7,4.26,4.26,0,0,0-2.3,4C66.06,293,84.87,309,90.35,315.21Z" style="fill:#ffb573"></path><path d="M57.62,242.76c-.84-1.83-1.75-3.92.14-4.57,2.09-.72,13.53-1.46,17.47-.11a4.06,4.06,0,0,1,2.85,5l0,.08Z" style="fill:#263238"></path><path d="M91.34,252.21c1.57,8-2.11,27-2.07,58H47.64c-.28-6.27,4.28-21.11-1.38-50.67a18.11,18.11,0,0,1,.37-13c2.26-6,8.42-5.53,12.51-5.78a149.32,149.32,0,0,1,17.7,0c2.4.24,6.2,1.73,8.59,2.6C89.17,244.71,90.57,248.32,91.34,252.21Z" style="fill:#407BFF"></path><path d="M80.32,260.16c1.09,6.57,5.39,15.26,9.69,20.35.17-3.73.54-7.63.53-10.62Z" style="opacity:0.2;isolation:isolate"></path><path d="M82.25,248c-3.32,6.49,3.5,28.48,3.5,28.48l16.35-4.59s-.22-10.86-4.09-19.31C93.61,242.94,85.9,241,82.25,248Z" style="fill:#407BFF"></path><polygon points="125.53 403.82 133.31 403.82 135.08 385.79 127.3 385.79 125.53 403.82" style="fill:#ffb573"></polygon><polygon points="134.96 386.89 134.06 396.18 126.27 396.18 127.18 386.89 134.96 386.89" style="opacity:0.2;isolation:isolate"></polygon><polygon points="94.84 403.82 102.62 403.82 106.53 385.79 98.75 385.79 94.84 403.82" style="fill:#ffb573"></polygon><g style="opacity:0.2"><polygon points="98.58 386.75 106.36 386.75 104.34 396.04 96.56 396.04 98.58 386.75"></polygon></g><path d="M133.75,400.32h-8.49a.76.76,0,0,0-.67.7l-1.54,8.91a1.53,1.53,0,0,0,.84,1.76,1.35,1.35,0,0,0,.28,0c3.06-.07,7.49-.3,11.34-.3,4.51,0,8.4.31,13.68.31,3.2,0,4.09-4.18,2.75-4.56-6.09-1.72-11.06-1.9-16.32-6.11A3.09,3.09,0,0,0,133.75,400.32Z" style="fill:#263238"></path><path d="M139.93,403.22c1,0,2-.14,2.29-.59a.71.71,0,0,0,0-.81,1,1,0,0,0-.58-.43c-1.3-.35-4,1.2-4.13,1.27a.16.16,0,0,0-.09.19.21.21,0,0,0,.14.15A14.51,14.51,0,0,0,139.93,403.22Zm1.24-1.51a1,1,0,0,1,.35,0,.51.51,0,0,1,.36.26c.13.23.09.34,0,.4-.36.51-2.33.52-3.78.31A8.35,8.35,0,0,1,141.17,401.71Z" style="fill:#407BFF"></path><path d="M137.58,403h.08c.94-.42,2.8-2.1,2.65-3,0-.21-.18-.46-.68-.52a1.36,1.36,0,0,0-1,.32c-1,.81-1.2,2.91-1.21,3a.19.19,0,0,0,.07.17Zm1.9-3.15h.11c.33,0,.35.17.36.21.09.53-1.18,1.85-2.14,2.42a4.3,4.3,0,0,1,1-2.39A1,1,0,0,1,139.48,399.85Z" style="fill:#407BFF"></path><path d="M103.17,400.32H94.43a.77.77,0,0,0-.66.7l-1.54,8.91a1.53,1.53,0,0,0,.89,1.76.73.73,0,0,0,.25,0c3-.07,4.54-.3,8.38-.3,2.37,0,5.4.31,8.67.31s3.69-4.18,2.35-4.56c-6-1.69-6.41-4-8.33-6.27A1.66,1.66,0,0,0,103.17,400.32Z" style="fill:#263238"></path><path d="M107.74,404.21a2.51,2.51,0,0,0,1.87-.51.74.74,0,0,0,0-.87.85.85,0,0,0-.58-.43c-1.14-.27-3.29,1.2-3.38,1.26a.2.2,0,0,0-.08.19.2.2,0,0,0,.14.14A9.93,9.93,0,0,0,107.74,404.21Zm1-1.48H109a.45.45,0,0,1,.34.24c.17.31.07.43,0,.48-.33.43-1.92.44-3.09.25a6,6,0,0,1,2.51-1Z" style="fill:#407BFF"></path><path d="M105.76,404h.08c.81-.44,2.37-2.14,2.2-3a.59.59,0,0,0-.59-.49,1,1,0,0,0-.78.24c-.9.74-1.09,3-1.1,3.08a.2.2,0,0,0,.09.17Zm1.57-3.15h.08c.24,0,.26.14.27.19.1.51-.9,1.8-1.7,2.41a4.49,4.49,0,0,1,.92-2.44.67.67,0,0,1,.43-.16Z" style="fill:#407BFF"></path><path d="M76.79,310.2s36.85,15.21,44.46,26.91a404,404,0,0,1-12.17,54H95.22a273.51,273.51,0,0,1,3.59-43.76c.88-15.69-63.9,10.85-51.19-37.18Z" style="fill:#263238"></path><path d="M89.27,310.2s34.06,4.39,52.83,15.08c0,0,5.3,2.5,5.31,11.24a164.31,164.31,0,0,1-10.62,54.62H125.23s.59-18.87.2-49.32c-.12-9.13-19-2.55-37-3.61a41,41,0,0,1-35.24-25.07l-1.23-2.94Z" style="fill:#263238"></path><path d="M76.79,310.2s36.85,15.21,44.46,26.91a404,404,0,0,1-12.17,54H95.22a273.51,273.51,0,0,1,3.59-43.76c.88-15.69-63.9,10.85-51.19-37.18Z" style="fill:#263238"></path><path d="M89.27,310.2s34.06,4.39,52.83,15.08c0,0,5.3,2.5,5.31,11.24a164.31,164.31,0,0,1-10.62,54.62H125.23s.59-18.87.2-49.32c-.12-9.13-19-2.55-37-3.61a41,41,0,0,1-35.24-25.07l-1.23-2.94Z" style="fill:#263238"></path></g><rect x="46.39" y="341.35" width="3.82" height="74.81" style="fill:#407BFF"></rect><rect x="76.46" y="341.35" width="3.82" height="74.81" style="fill:#407BFF"></rect><rect x="99.84" y="341.35" width="3.82" height="74.81" style="fill:#407BFF"></rect><rect x="99.84" y="341.35" width="3.82" height="74.81" style="opacity:0.4"></rect><rect x="69.77" y="341.35" width="3.82" height="74.81" style="fill:#407BFF"></rect><rect x="69.77" y="341.35" width="3.82" height="74.81" style="opacity:0.4"></rect><rect x="45.63" y="281.04" width="3.67" height="56.63" style="fill:#407BFF"></rect><rect x="45.63" y="281.04" width="3.67" height="56.63" style="fill:#fff;opacity:0.8"></rect><rect x="76.53" y="281.04" width="3.67" height="56.63" style="fill:#407BFF"></rect><rect x="76.53" y="281.04" width="3.67" height="56.63" style="fill:#fff;opacity:0.8"></rect><rect x="41.3" y="261.84" width="44.89" height="21.48" rx="4.19" style="fill:#407BFF"></rect><rect x="41.3" y="261.84" width="44.89" height="21.48" rx="4.19" style="fill:#fff;opacity:0.8"></rect><path d="M107.68,341.35h-65a7.42,7.42,0,0,1,7.42-7.42h50.16a7.42,7.42,0,0,1,7.42,7.42Z" style="fill:#407BFF"></path><path d="M107.68,341.35h-65a7.42,7.42,0,0,1,7.42-7.42h50.16a7.42,7.42,0,0,1,7.42,7.42Z" style="fill:#fff;opacity:0.7000000000000001"></path><path d="M115,268.48l-1.93,14.19c-.61,4.73-1.24,9.46-1.7,14.11l-.15,1.73-.07.87a1.55,1.55,0,0,0,0-.43,1.8,1.8,0,0,0-.1-.4,1.72,1.72,0,0,0-.24-.49c-.15-.19-.17-.16-.13-.12a2.17,2.17,0,0,0,.29.24,8.36,8.36,0,0,0,1.12.65,45.86,45.86,0,0,0,6.21,2.31c4.44,1.38,9.1,2.5,13.7,3.65l-.52,4a104.68,104.68,0,0,1-14.67-1.52,41.91,41.91,0,0,1-7.54-2,16,16,0,0,1-2.09-1,9.41,9.41,0,0,1-1.18-.8,6.88,6.88,0,0,1-1.36-1.44,6.28,6.28,0,0,1-.64-1.3,8.52,8.52,0,0,1-.2-.84,6.32,6.32,0,0,1,0-.87v-2.81c.2-4.94.65-9.77,1.17-14.59s1.13-9.61,1.89-14.41Z" style="fill:#ffc3bd"></path><path d="M142.61,309.05l-3.11,2.84a2.39,2.39,0,0,1-2.66.39l-3.43-1.65s-5.08-.21-5.81-3.32l1.32-2.41,7.87-.88a3.66,3.66,0,0,1,2.33.52l3.24,2a1.59,1.59,0,0,1,.52,2.19A2.08,2.08,0,0,1,142.61,309.05Z" style="fill:#ffc3bd"></path><path d="M124,239.32c.8,4.87,1.48,13.77-2,16.89a45.51,45.51,0,0,1,14.08,12.22c6-4.72,1-11.77,1-11.77-5.36-1.45-5.1-5.45-4.05-9.18Z" style="fill:#ffc3bd"></path><path d="M112.42,257.48c-6.13,2-7.45,10.21-6.9,16.6l12.37,7.61s3-9.33,3-14.32C120.84,262.06,116.58,256.13,112.42,257.48Z" style="fill:#263238"></path><path d="M143.82,264l6.35,8.94a8.34,8.34,0,0,1,1,8.13,6,6,0,0,1-6,3.69C137.23,284.73,143.82,264,143.82,264Z" style="fill:#263238"></path><path d="M150.28,269.85c-3.77,10.36-8.13,18.83-4.85,38.41l-33.12-1c.87-12.23-.44-21.34-3.44-42.74a7,7,0,0,1,6-7.86,24,24,0,0,1,6.17-1.47,104.31,104.31,0,0,1,15,.45C137.68,255.84,153.28,258.13,150.28,269.85Z" style="fill:#263238"></path><path d="M139.33,229.49c.2.63.7,1,1.11.9s.58-.75.38-1.37-.7-1-1.11-.9S139.11,228.87,139.33,229.49Z" style="fill:#263238"></path><path d="M139.54,228.21l1.36-.92S140.51,228.72,139.54,228.21Z" style="fill:#263238"></path><path d="M139.75,230.44a17.67,17.67,0,0,0,3.52,3.28,2.81,2.81,0,0,1-2.1,1.14Z" style="fill:#ed847e"></path><path d="M138.31,223.85a.37.37,0,0,0,0-.38.38.38,0,0,0-.54-.08,3.81,3.81,0,0,0-1.63,3.13.38.38,0,0,0,.38.36h0a.38.38,0,0,0,.37-.39h0a3,3,0,0,1,1.32-2.46A.3.3,0,0,0,138.31,223.85Z" style="fill:#263238"></path><path d="M117.18,233.66c3,7.54,4,10.79,9.2,13.49,7.76,4.06,16.37-1.22,15.73-9.49-.57-7.44-5.3-18.52-13.82-19.16a11,11,0,0,0-11.11,15.16Z" style="fill:#ffc3bd"></path><path d="M135.29,231.92c1.1-.32,2.8-2,1.71-5.34a10.15,10.15,0,0,1,0-5.88c.45-1.58-.41-3.75-4.32-5.24-6.5-2.49-13.59-1.28-17.89,4.68,0,0-13.71,4.05-2.54,18.16S137.58,246.66,135.29,231.92Z" style="fill:#263238"></path><path d="M140,245.75a14.48,14.48,0,0,1-5.86-1.28c2.15,1.32,4.71,4.3,5.12,6.78a23.55,23.55,0,0,0-12.59-4.86c-4.71,0-7.15,2.72-10.73,5.79.8-1.82,1.59-3.64,2.39-5.45a17,17,0,0,1-4.9,1.83c1.59-1.27,1.84-3.66,1.23-5.6a21.49,21.49,0,0,0-3.07-5.24,9.62,9.62,0,0,1-2.1-5.61,7.41,7.41,0,0,1,2.68-5.1,19.1,19.1,0,0,1,5.09-3c2.54-1.14,5.21-2.21,8-2.16a10.58,10.58,0,0,1,8.54,4.7,10.39,10.39,0,0,1,1.67,5.09c.11,1.73-.6,3.36-.48,5A13.64,13.64,0,0,0,140,245.75Z" style="fill:#263238"></path><path d="M132.05,233.48a6.37,6.37,0,0,0,3.69,3.16c2.12.67,3.26-1.21,2.73-3.25-.47-1.84-2.14-4.41-4.3-4.19a2.84,2.84,0,0,0-2.49,3.16A2.75,2.75,0,0,0,132.05,233.48Z" style="fill:#ffc3bd"></path><polygon points="185.64 399.41 193.46 398.67 188.19 379.41 180.37 380.15 185.64 399.41" style="fill:#ffc3bd"></polygon><path d="M204,403.94c-4.78-1.41-4.63-3.51-9.4-7.39a3.1,3.1,0,0,0-1.71-.78l-7.78-.54a.63.63,0,0,0-.62.54l-1.1,5.39c-.38,1.87.77,3.66,2.39,3.72,2.59.1,5.77.2,8.6.39,4.13.29,4.18,2.38,9,2.15C206.35,407.28,205.63,404.42,204,403.94Z" style="fill:#263238"></path><polygon points="214.74 374.63 220.04 370.03 211.17 356.56 204.54 362.84 214.74 374.63" style="fill:#ffc3bd"></polygon><path d="M218.62,367.18,212.3,373a.71.71,0,0,0-.11.9l3,4.64a3.14,3.14,0,0,0,4.37.74l.29-.24c2.07-1.6,3.24-4.41,5.69-6.71,3.57-3.34,4.21-3.25,6.42-7.92,1.5-3.14-1.77-3.15-2.92-2.18-2.89,2.46-1.75,2.56-8.48,4A3.93,3.93,0,0,0,218.62,367.18Z" style="fill:#263238"></path><path d="M133.88,307.69s53.62-7.94,59.17,5.81c9.66,23.91,23.64,50.85,23.64,50.85l-6.3,5.78s-24-21.51-32.32-45.54c-9.93,3.22-41.54,13.56-53.12,13.56-12.36,0-17.41-10.54-12.94-28a3.5,3.5,0,0,1,3.43-2.64C123.22,307.51,133.88,307.69,133.88,307.69Z" style="fill:#407BFF"></path><path d="M133.88,307.69s53.62-7.94,59.17,5.81c9.66,23.91,23.64,50.85,23.64,50.85l-6.3,5.78s-24-21.51-32.32-45.54c-9.93,3.22-41.54,13.56-53.12,13.56-12.36,0-17.41-10.54-12.94-28a3.5,3.5,0,0,1,3.43-2.64C123.22,307.51,133.88,307.69,133.88,307.69Z" style="fill:#fff;opacity:0.5"></path><path d="M139,314.67s44-1.33,44.38,14.26c.61,25.79,8.52,62.67,8.52,62.67l-8.67.81S170.11,363,166.66,337.79c-15.68,1-30.13.32-41.71.32-13,0-14-14.25-1.41-30.87C131.26,307.28,139,314.67,139,314.67Z" style="fill:#407BFF"></path><path d="M139,314.67s44-1.33,44.38,14.26c.61,25.79,8.52,62.67,8.52,62.67l-8.67.81S170.11,363,166.66,337.79c-15.68,1-30.13.32-41.71.32-13,0-14-14.25-1.41-30.87C131.26,307.28,139,314.67,139,314.67Z" style="fill:#fff;opacity:0.5"></path><path d="M111.88,305.32l-.94,2.94c-.12.23.14.47.53.48l34.08,1c.3,0,.55-.13.58-.31l.38-3c0-.2-.22-.39-.55-.4l-33.54-1A.56.56,0,0,0,111.88,305.32Z" style="fill:#407BFF"></path><path d="M116.27,309.2h-.9c-.18,0-.31-.1-.3-.22l.54-3.84c0-.11.17-.2.35-.19h.9c.18,0,.31.1.3.21l-.54,3.84C116.61,309.12,116.45,309.21,116.27,309.2Z" style="fill:#263238"></path><path d="M143,310h-.9c-.18,0-.31-.1-.3-.21l.54-3.84c0-.11.17-.2.35-.2h.9c.18,0,.31.1.3.22l-.54,3.83C143.36,309.92,143.2,310,143,310Z" style="fill:#263238"></path><path d="M129.64,309.6h-.89c-.18,0-.32-.1-.3-.21l.53-3.84c0-.11.18-.2.36-.19h.9c.18,0,.31.11.29.22l-.53,3.84C130,309.52,129.82,309.61,129.64,309.6Z" style="fill:#263238"></path><path d="M148.64,273.78c-.15.7-.34,1.63-.5,2.45s-.31,1.71-.44,2.57c-.26,1.72-.48,13.45-.16,15l.05.29,0-.1a.89.89,0,0,0-.08-.17,1.82,1.82,0,0,0-.16-.31,1.93,1.93,0,0,0-.63-.64c-.25-.1-.11,0,.09,0,.66.2,17,11,18.6,14.48l-2.54,3.17c-1.59,1.87-19.44-11.12-20.21-11.59a5.52,5.52,0,0,1-1.61-1.62,5.07,5.07,0,0,1-.32-.61l-.13-.34-.1-.26-.1-.39c-1.15-4-1.71-23.86-1.42-24.93Z" style="fill:#ffc3bd"></path><path d="M150.06,265.19c1,6.58-1.91,14.43-1.91,14.43l-10.29-1.35s-3.63-13.62-.34-16.71c.58-2.26,2.74-4,6.08-3.29A8.35,8.35,0,0,1,150.06,265.19Z" style="fill:#263238"></path><path d="M177.43,310.43l-2.78-2.15a4,4,0,0,0-2.46-.83l-7.82,0-4.79.44c0,3.19,8.6,5.77,8.6,5.77l3.61,2.29a1.71,1.71,0,0,0,1.91-.07l3.67-2.63a1.72,1.72,0,0,0,.44-2.38A1.8,1.8,0,0,0,177.43,310.43Z" style="fill:#ffc3bd"></path><rect x="108.45" y="345.18" width="3.82" height="75.16" style="fill:#407BFF"></rect><rect x="138.52" y="345.18" width="3.82" height="75.16" style="fill:#407BFF"></rect><rect x="161.91" y="345.18" width="3.82" height="75.16" style="fill:#407BFF"></rect><rect x="161.91" y="345.18" width="3.82" height="75.16" style="opacity:0.4"></rect><rect x="131.84" y="345.18" width="3.82" height="75.16" style="fill:#407BFF"></rect><rect x="131.84" y="345.18" width="3.82" height="75.16" style="opacity:0.4"></rect><rect x="107.7" y="284.87" width="3.67" height="56.63" style="fill:#407BFF"></rect><rect x="107.7" y="284.87" width="3.67" height="56.63" style="fill:#fff;opacity:0.8"></rect><rect x="138.6" y="284.87" width="3.67" height="56.63" style="fill:#407BFF"></rect><rect x="138.6" y="284.87" width="3.67" height="56.63" style="fill:#fff;opacity:0.8"></rect><rect x="103.36" y="265.67" width="44.89" height="21.48" rx="4.19" style="fill:#407BFF"></rect><rect x="103.36" y="265.67" width="44.89" height="21.48" rx="4.19" style="fill:#fff;opacity:0.8"></rect><path d="M169.74,345.18h-65a7.42,7.42,0,0,1,7.42-7.42h50.16a7.42,7.42,0,0,1,7.42,7.42Z" style="fill:#407BFF"></path><path d="M169.74,345.18h-65a7.42,7.42,0,0,1,7.42-7.42h50.16a7.42,7.42,0,0,1,7.42,7.42Z" style="fill:#fff;opacity:0.7000000000000001"></path><path d="M254.9,313.06l5,4.54-3.58,7.62a27.48,27.48,0,0,1-3.78-2.59,2,2,0,0,1-.57-.84l-2.16-6.05Z" style="fill:#7f3e3b"></path><polygon points="261.35 321.3 258.63 326.92 256.36 325.19 259.95 317.6 261.35 321.3" style="fill:#7f3e3b"></polygon><path d="M211.54,276.27q-1.57-3.75-3-7.53c-.94-2.55-1.84-5-2.67-7.7l10.59-3.41c1.66,4.76,4.47,9.78,6.35,14.53s6.3,16,6.89,17.06c.29.55.62,1,.92,1.52l4.37,2.89-9.28,6.88S218.33,296.54,211.54,276.27Z" style="fill:#7f3e3b"></path><path d="M250.77,318.22c.54.45,7.5-2.15,2.67-7.06-3.28-3.33-12.05-17.77-24.54-19.32a6.41,6.41,0,0,0-4.56,1.42,4.28,4.28,0,0,0-1.66,4.28C223.33,300,244.4,312.93,250.77,318.22Z" style="fill:#7f3e3b"></path><polygon points="255.75 417.45 262.14 414.79 259.45 397.35 250.2 399.85 255.75 417.45" style="fill:#7f3e3b"></polygon><polygon points="249.36 397.49 258.84 393.29 260.28 402.76 251.81 404.96 249.36 397.49" style="opacity:0.2;isolation:isolate"></polygon><path d="M201.49,313.82s49.62-1,50.66,20.47c.85,17.6,3.69,35.74,8.32,64.58l-12.31,2S231.1,359.64,231,342.57c-13.87,1.45-46.06,7.41-54.14-8a27.93,27.93,0,0,1-2.64-17.49Z" style="fill:#407BFF"></path><polygon points="246.45 403.45 262.33 398.98 261.31 391.86 244.96 397.34 246.45 403.45" style="fill:#263238"></polygon><path d="M262.57,411.77l-8.1,2.5a.62.62,0,0,0-.39.74l1.5,7.74a1.4,1.4,0,0,0,1.65,1.13c2.8-.93,4.11-1.53,7.66-2.63,2.19-.68,7.19-2.29,10.27-3s2.31-4.27.95-4.32c-6.13-.16-9.67-.77-12.17-2A1.88,1.88,0,0,0,262.57,411.77Z" style="fill:#263238"></path><path d="M267.68,412.05a1,1,0,0,0,0-1,.62.62,0,0,0-.53-.36c-1-.1-2.64,1.85-2.82,2.08a.19.19,0,0,0,0,.19.16.16,0,0,0,.15.09,9.25,9.25,0,0,0,2-.27A2,2,0,0,0,267.68,412.05Zm-.63-1a.33.33,0,0,1,.25.19.62.62,0,0,1,.06.63c-.24.43-1.18.69-2.55.83C265.51,411.93,266.54,411,267.05,411Z" style="fill:#407BFF"></path><path d="M264.54,413c.6-.63,1.26-2.43.88-3.18a.68.68,0,0,0-.75-.34.84.84,0,0,0-.65.44c-.54.9.22,2.93.22,3a.24.24,0,0,0,.14.12h.07A.13.13,0,0,0,264.54,413Zm.18-3.17c.26,0,.37.06.38.15a3.52,3.52,0,0,1-.62,2.54,3.86,3.86,0,0,1-.17-2.42.5.5,0,0,1,.32-.25Z" style="fill:#407BFF"></path><polygon points="287.39 417.05 293.88 413.28 288.43 394.74 279.31 398.69 287.39 417.05" style="fill:#7f3e3b"></polygon><polygon points="278.4 396.76 287.56 391.95 290.01 400.13 281.98 404.77 278.4 396.76" style="opacity:0.2;isolation:isolate"></polygon><path d="M216.13,312.28c.29,0,38.12.4,54,17.79a24.2,24.2,0,0,1,5.46,10.32c8.3,32.95,14.18,55.4,14.18,55.4l-10.27,6.51s-22.89-36.24-25.12-60.24c-15.54-2.74-53.79,8.63-59.72-3.39-4.85-9.83-4.24-23.68-4.24-23.68Z" style="fill:#407BFF"></path><polygon points="277.89 404.04 291.72 395.97 289.93 390.15 275.17 397.05 277.89 404.04" style="fill:#263238"></polygon><path d="M292.61,407.7l-8.11,2.59a.7.7,0,0,0-.38.81l1.55,8.53c.21.92.95,1.48,1.65,1.27h0c2.8-1,4.1-1.61,7.65-2.74,2.19-.7,8.13-2.82,11.12-3.94s1.89-5,.48-4.85c-6.08.55-10.12,0-12.64-1.48A1.68,1.68,0,0,0,292.61,407.7Z" style="fill:#263238"></path><path d="M297.69,409.36a1,1,0,0,0,.55-.82.67.67,0,0,0-.2-.6c-.74-.67-3.23-.07-3.52,0a.21.21,0,0,0-.13.13.18.18,0,0,0,.08.18,8.82,8.82,0,0,0,1.73.95A2,2,0,0,0,297.69,409.36Zm.06-1.19a.31.31,0,0,1,.09.29.62.62,0,0,1-.32.55c-.46.2-1.39-.12-2.55-.84C296,408,297.36,407.85,297.75,408.17Z" style="fill:#407BFF"></path><path d="M294.55,408.27c.86-.15,2.47-1.21,2.59-2a.67.67,0,0,0-.4-.72.86.86,0,0,0-.78,0c-1,.41-1.56,2.51-1.6,2.58a.15.15,0,0,0,0,.16l.08,0Zm2-2.46c.23.12.26.27.22.35a3.57,3.57,0,0,1-2,1.68,4,4,0,0,1,1.31-2.06.49.49,0,0,1,.41,0Z" style="fill:#407BFF"></path><path d="M186.52,225.87l4.67,4.38,7,5.9c-.1.34-.23.78-.36,1.24a11.63,11.63,0,0,0-.45,3.89c.14,2.65.62,4.85,5,6.2,0,0,5,5.23-5.57,4.74s-12.65-5.71-12.65-5.71C188.41,242.76,187.52,231.88,186.52,225.87Z" style="fill:#7f3e3b"></path><path d="M207.08,218.21c.06.65.45,1.17.88,1.14s.72-.57.67-1.22-.46-1.16-.89-1.14S207,217.56,207.08,218.21Z" style="fill:#263238"></path><path d="M204.65,216a.41.41,0,0,0,.3-.21,3.2,3.2,0,0,1,2.22-1.76.41.41,0,0,0,.33-.44.39.39,0,0,0-.43-.33h0a4,4,0,0,0-2.81,2.18.39.39,0,0,0,.17.52A.57.57,0,0,0,204.65,216Z" style="fill:#263238"></path><path d="M207.35,218.55a21.23,21.23,0,0,0,2.78,4.79,3.13,3.13,0,0,1-2.64.47Z" style="fill:#630f0f"></path><path d="M185,217.23c1.22,8,1.54,12.73,6,16.55a10.49,10.49,0,0,0,17.4-6.5c1.06-7.28-1.14-19.09-9.24-21.84A10.6,10.6,0,0,0,185,217.23Z" style="fill:#7f3e3b"></path><path d="M181.66,220.51c1.52,3.28,2.85,7.45,5.43,10l9.65,1.18s9.6-5.82,6.81-11.26c1.27-1.33.37-4.91-.83-6.81a4.26,4.26,0,0,1-5.58.43,3.83,3.83,0,0,1-6,1.14,4,4,0,0,1-6.44-.36,3.62,3.62,0,0,1-4.23.17l-.16-.12A14.27,14.27,0,0,0,181.66,220.51Z" style="fill:#263238"></path><path d="M181.66,220.51c1.52,3.28,2.85,7.45,5.43,10l9.65,1.18s9.6-5.82,6.81-11.26c1.27-1.33.37-4.91-.83-6.81a4.26,4.26,0,0,1-5.58.43,3.83,3.83,0,0,1-6,1.14,4,4,0,0,1-6.44-.36,3.62,3.62,0,0,1-4.23.17l-.16-.12A14.27,14.27,0,0,0,181.66,220.51Z" style="fill:#fff;opacity:0.1"></path><path d="M179.24,217.56c1.18,2,5.46,4.53,18.51,1.24.84-.22,5.82-2.34,5.8-3.2a12.05,12.05,0,0,0-1-3c.27-1.4,2.38-1.24,3.61-2a3.31,3.31,0,0,0,1.07-4.08,7.18,7.18,0,0,0-3.2-3.2c-5.36-3.14-10.05-2.35-15.76-1.44C183.27,202.67,173.73,208.33,179.24,217.56Z" style="fill:#263238"></path><path d="M199,221.4a9.42,9.42,0,0,0,3.14,5c2,1.51,3.29-.35,3-2.93-.24-2.34-1.5-5.94-3.65-6.41S198.38,218.9,199,221.4Z" style="fill:#7f3e3b"></path><path d="M170.39,250.78c.53-2,3.76-4.36,5.87-4.59,0,0,6.76-2.41,9.74-2.37,5.67,0,10-.68,17.09,2.94,2.6.4,5.14,1,7.15,1.51,2.58.72,4.1,1.22,4.1,1.22s-.81,18.33-.33,36.4c.27,10.05,1.63,19.92,2.1,26.75l-16.49,5.1a39.51,39.51,0,0,1-25.37-.7h0c-2.31-8-2.83-15.19-4.5-30C168.75,278.22,168.2,259.17,170.39,250.78Z" style="fill:#263238"></path><path d="M213.86,275.77c.08,3.8.17,7.77.24,11.76-5.66-6.65-10.43-26-10.43-26Z" style="opacity:0.2;isolation:isolate"></path><path d="M220.61,254.91c3.49,6.68,9.54,19.64,9.54,19.64l-14.81,7.28c-4.9-5.34-11.71-18.22-12.19-23.21-.61-5.75,3.24-10.29,9.1-9.64A11,11,0,0,1,220.61,254.91Z" style="fill:#263238"></path><rect x="167.82" y="349.98" width="3.82" height="74.81" style="fill:#407BFF"></rect><rect x="197.89" y="349.98" width="3.82" height="74.81" style="fill:#407BFF"></rect><rect x="221.27" y="349.98" width="3.82" height="74.81" style="fill:#407BFF"></rect><rect x="221.27" y="349.98" width="3.82" height="74.81" style="opacity:0.4"></rect><rect x="191.21" y="349.98" width="3.82" height="74.81" style="fill:#407BFF"></rect><rect x="191.21" y="349.98" width="3.82" height="74.81" style="opacity:0.4"></rect><rect x="167.07" y="289.67" width="3.67" height="56.63" style="fill:#407BFF"></rect><rect x="167.07" y="289.67" width="3.67" height="56.63" style="fill:#fff;opacity:0.8"></rect><rect x="197.97" y="289.67" width="3.67" height="56.63" style="fill:#407BFF"></rect><rect x="197.97" y="289.67" width="3.67" height="56.63" style="fill:#fff;opacity:0.8"></rect><rect x="162.73" y="270.47" width="44.89" height="21.48" rx="4.19" style="fill:#407BFF"></rect><rect x="162.73" y="270.47" width="44.89" height="21.48" rx="4.19" style="fill:#fff;opacity:0.8"></rect><path d="M229.11,350h-65a7.42,7.42,0,0,1,7.42-7.42h50.16a7.42,7.42,0,0,1,7.42,7.42Z" style="fill:#407BFF"></path><path d="M229.11,350h-65a7.42,7.42,0,0,1,7.42-7.42h50.16a7.42,7.42,0,0,1,7.42,7.42Z" style="fill:#fff;opacity:0.7000000000000001"></path></g></svg>