<svg xmlns="http://www.w3.org/2000/svg" viewBox="0 0 500 500"><g id="freepik--background-complete--inject-18"><rect y="382.4" width="500" height="0.25" style="fill:#ebebeb"></rect><rect x="131.47" y="397.82" width="33.12" height="0.25" style="fill:#ebebeb"></rect><rect x="250.15" y="395.11" width="8.69" height="0.25" style="fill:#ebebeb"></rect><rect x="52.46" y="390.89" width="19.19" height="0.25" style="fill:#ebebeb"></rect><rect x="389.7" y="389.21" width="26.08" height="0.25" style="fill:#ebebeb"></rect><rect x="357.35" y="389.21" width="23.44" height="0.25" style="fill:#ebebeb"></rect><rect x="356.23" y="401.21" width="93.68" height="0.25" style="fill:#ebebeb"></rect><path d="M237,337.8H43.91a5.71,5.71,0,0,1-5.7-5.71V60.66A5.71,5.71,0,0,1,43.91,55H237a5.71,5.71,0,0,1,5.71,5.71V332.09A5.71,5.71,0,0,1,237,337.8ZM43.91,55.2a5.46,5.46,0,0,0-5.45,5.46V332.09a5.46,5.46,0,0,0,5.45,5.46H237a5.47,5.47,0,0,0,5.46-5.46V60.66A5.47,5.47,0,0,0,237,55.2Z" style="fill:#ebebeb"></path><path d="M453.31,337.8H260.21a5.72,5.72,0,0,1-5.71-5.71V60.66A5.72,5.72,0,0,1,260.21,55h193.1A5.71,5.71,0,0,1,459,60.66V332.09A5.71,5.71,0,0,1,453.31,337.8ZM260.21,55.2a5.47,5.47,0,0,0-5.46,5.46V332.09a5.47,5.47,0,0,0,5.46,5.46h193.1a5.47,5.47,0,0,0,5.46-5.46V60.66a5.47,5.47,0,0,0-5.46-5.46Z" style="fill:#ebebeb"></path><rect x="60.48" y="41.22" width="373.21" height="123.26" transform="translate(494.18 205.71) rotate(180)" style="fill:#fafafa"></rect><rect x="332.71" y="59.67" width="30.99" height="92.85" transform="translate(696.4 212.19) rotate(180)" style="fill:#e6e6e6"></rect><polygon points="308.22 152.52 336.18 152.52 336.18 78.31 308.22 96.4 308.22 152.52" style="fill:#e6e6e6"></polygon><rect x="373.26" y="90.34" width="30.99" height="62.18" transform="translate(777.5 242.86) rotate(180)" style="fill:#e6e6e6"></rect><rect x="283.5" y="82.59" width="15.8" height="69.94" transform="translate(582.8 235.11) rotate(180)" style="fill:#e6e6e6"></rect><rect x="260.98" y="100.45" width="15.8" height="52.07" transform="translate(537.76 252.97) rotate(180)" style="fill:#e6e6e6"></rect><rect x="249.04" y="117.55" width="15.8" height="34.97" transform="translate(513.88 270.07) rotate(180)" style="fill:#e6e6e6"></rect><rect x="183.48" y="117.55" width="15.8" height="34.97" transform="translate(382.75 270.07) rotate(180)" style="fill:#e6e6e6"></rect><rect x="198.59" y="128.59" width="15.8" height="23.93" transform="translate(412.98 281.11) rotate(180)" style="fill:#e6e6e6"></rect><rect x="408.59" y="117.55" width="15.8" height="34.97" transform="translate(832.98 270.07) rotate(180)" style="fill:#e6e6e6"></rect><rect x="272.32" y="111.74" width="143" height="40.78" transform="translate(687.63 264.26) rotate(180)" style="fill:#e6e6e6"></rect><rect x="183.48" y="136.17" width="143" height="16.35" transform="translate(509.95 288.69) rotate(180)" style="fill:#e6e6e6"></rect><rect x="154.51" y="71.63" width="48.01" height="92.85" style="fill:#f0f0f0"></rect><polygon points="240.45 164.49 197.13 164.49 197.13 90.27 240.45 108.37 240.45 164.49" style="fill:#f0f0f0"></polygon><rect x="91.69" y="102.3" width="48.01" height="62.18" style="fill:#f0f0f0"></rect><rect x="254.27" y="94.55" width="24.47" height="69.93" style="fill:#f0f0f0"></rect><rect x="289.16" y="117.82" width="24.47" height="46.67" style="fill:#f0f0f0"></rect><rect x="307.66" y="129.52" width="24.47" height="34.97" style="fill:#f0f0f0"></rect><rect x="409.23" y="129.52" width="24.47" height="34.97" style="fill:#f0f0f0"></rect><rect x="385.81" y="140.56" width="24.47" height="23.93" style="fill:#f0f0f0"></rect><rect x="60.48" y="129.52" width="24.47" height="34.97" style="fill:#f0f0f0"></rect><rect x="74.54" y="123.7" width="221.53" height="40.78" style="fill:#f0f0f0"></rect><rect x="212.17" y="148.14" width="221.53" height="16.35" style="fill:#f0f0f0"></rect><rect x="432.21" y="41.22" width="2.97" height="123.26" style="fill:#e0e0e0"></rect><rect x="308.3" y="42.71" width="2.97" height="120.29" style="fill:#e0e0e0"></rect><rect x="184.39" y="42.71" width="2.97" height="120.29" style="fill:#e0e0e0"></rect><rect x="246.35" y="-56.49" width="2.97" height="371.73" transform="translate(377.21 -118.46) rotate(90)" style="fill:#e0e0e0"></rect><rect x="246.35" y="-109.53" width="2.97" height="371.73" transform="translate(324.17 -171.5) rotate(90)" style="fill:#e0e0e0"></rect><rect x="246.35" y="-144.64" width="2.97" height="374.7" transform="translate(290.54 -205.13) rotate(90)" style="fill:#e0e0e0"></rect><rect x="60.48" y="41.22" width="2.97" height="123.26" transform="translate(123.94 205.71) rotate(180)" style="fill:#e0e0e0"></rect><rect x="246.35" y="-24.35" width="2.97" height="374.7" transform="translate(84.83 410.83) rotate(-90)" style="fill:#e0e0e0"></rect><rect x="54.28" y="188.33" width="391.43" height="194.07" style="fill:#f5f5f5"></rect><path d="M448,185.67H52a2.67,2.67,0,0,0-2.67,2.66h0A2.67,2.67,0,0,0,52,191H448a2.67,2.67,0,0,0,2.67-2.67h0A2.67,2.67,0,0,0,448,185.67Z" style="fill:#ebebeb"></path><path d="M141.56,219.78V349.33a11.34,11.34,0,0,0-11.33,11.34H84.08a11.34,11.34,0,0,0-11.33-11.34V219.78a11.33,11.33,0,0,0,11.33-11.33h46.15A11.33,11.33,0,0,0,141.56,219.78Z" style="fill:#ebebeb"></path><path d="M125.64,355.17h-37l-.12-.33a16.85,16.85,0,0,0-10-10l-.32-.12V224.36l.32-.12a16.85,16.85,0,0,0,10-10l.12-.32h37l.12.32a16.87,16.87,0,0,0,10,10l.33.12V344.75l-.33.12a16.87,16.87,0,0,0-10,10Zm-36.29-1H125a17.86,17.86,0,0,1,10.11-10.11v-119A17.85,17.85,0,0,1,125,215H89.35a17.86,17.86,0,0,1-10.1,10.1v119A17.85,17.85,0,0,1,89.35,354.17Z" style="fill:#f5f5f5"></path><path d="M236.79,219.78V349.33a11.34,11.34,0,0,0-11.33,11.34H179.31A11.34,11.34,0,0,0,168,349.33V219.78a11.33,11.33,0,0,0,11.33-11.33h46.15A11.33,11.33,0,0,0,236.79,219.78Z" style="fill:#ebebeb"></path><path d="M220.88,355.17h-37l-.12-.33a16.86,16.86,0,0,0-10-10l-.33-.12V224.36l.33-.12a16.83,16.83,0,0,0,10-10l.12-.32h37l.12.32a16.83,16.83,0,0,0,10,10l.33.12V344.75l-.33.12a16.86,16.86,0,0,0-10,10Zm-36.29-1h35.59a17.89,17.89,0,0,1,10.11-10.11v-119A17.88,17.88,0,0,1,220.18,215h-35.6a17.83,17.83,0,0,1-10.1,10.1v119A17.89,17.89,0,0,1,184.59,354.17Z" style="fill:#f5f5f5"></path><path d="M332,219.78V349.33a11.34,11.34,0,0,0-11.33,11.34H274.54a11.34,11.34,0,0,0-11.33-11.34V219.78a11.33,11.33,0,0,0,11.33-11.33h46.15A11.33,11.33,0,0,0,332,219.78Z" style="fill:#ebebeb"></path><path d="M316.11,355.17h-37l-.12-.33a16.86,16.86,0,0,0-10-10l-.33-.12V224.36l.33-.12a16.83,16.83,0,0,0,10-10l.12-.32h37l.12.32a16.82,16.82,0,0,0,10,10l.32.12V344.75l-.32.12a16.85,16.85,0,0,0-10,10Zm-36.29-1h35.6a17.85,17.85,0,0,1,10.1-10.11v-119a17.86,17.86,0,0,1-10.1-10.1h-35.6a17.88,17.88,0,0,1-10.11,10.1v119A17.89,17.89,0,0,1,279.82,354.17Z" style="fill:#f5f5f5"></path><path d="M427.25,219.78V349.33a11.34,11.34,0,0,0-11.33,11.34H369.77a11.34,11.34,0,0,0-11.33-11.34V219.78a11.33,11.33,0,0,0,11.33-11.33h46.15A11.33,11.33,0,0,0,427.25,219.78Z" style="fill:#ebebeb"></path><path d="M411.34,355.17h-37l-.12-.33a16.87,16.87,0,0,0-10-10l-.33-.12V224.36l.33-.12a16.87,16.87,0,0,0,10-10l.12-.32h37l.12.32a16.85,16.85,0,0,0,10,10l.32.12V344.75l-.32.12a16.85,16.85,0,0,0-10,10Zm-36.29-1h35.6a17.85,17.85,0,0,1,10.1-10.11v-119a17.86,17.86,0,0,1-10.1-10.1h-35.6a17.85,17.85,0,0,1-10.11,10.1v119A17.86,17.86,0,0,1,375.05,354.17Z" style="fill:#f5f5f5"></path></g><g id="freepik--Shadow--inject-18"><ellipse id="freepik--path--inject-18" cx="250" cy="416.24" rx="193.89" ry="11.32" style="fill:#f5f5f5"></ellipse></g><g id="freepik--Countertop--inject-18"><path d="M404.14,191.41H95.86a3.64,3.64,0,0,1-3.64-3.63h0a3.65,3.65,0,0,1,3.64-3.64H404.14a3.65,3.65,0,0,1,3.64,3.64h0A3.64,3.64,0,0,1,404.14,191.41Z" style="fill:#407BFF"></path><path d="M404.14,191.41H95.86a3.64,3.64,0,0,1-3.64-3.63h0a3.65,3.65,0,0,1,3.64-3.64H404.14a3.65,3.65,0,0,1,3.64,3.64h0A3.64,3.64,0,0,1,404.14,191.41Z" style="fill:#fff;opacity:0.7000000000000001"></path><path d="M262.61,159.78H251.28a.84.84,0,0,0-.83.87l1.23,21.77h10.53l1.23-21.77A.82.82,0,0,0,262.61,159.78Z" style="fill:#407BFF;opacity:0.4"></path><polygon points="257.07 175.73 256.09 175.55 259.73 155.71 268.59 152.69 268.91 153.64 260.61 156.46 257.07 175.73" style="fill:#407BFF"></polygon><path d="M261.86,171l-.52,9.12a1.43,1.43,0,0,1-1.42,1.35H254a1.43,1.43,0,0,1-1.43-1.35l-.5-8.86a2.48,2.48,0,0,0,.63.08c1,0,1-.48,2-.48s1,.48,2,.48,1-.48,2-.48,1,.48,2,.48A2.43,2.43,0,0,0,261.86,171Z" style="fill:#407BFF;opacity:0.4"></path><rect x="251.68" y="182.42" width="10.53" height="1.73" style="fill:#407BFF;opacity:0.6000000000000001"></rect><rect x="381.35" y="180.97" width="16.98" height="3.17" style="fill:#407BFF;opacity:0.6000000000000001"></rect><rect x="381.35" y="180.97" width="2.04" height="3.17" style="fill:#407BFF;opacity:0.6000000000000001"></rect></g><g id="freepik--character-2--inject-18"><polygon points="332.99 398.48 325.92 402.55 317.44 387.17 324.51 383.1 332.99 398.48" style="fill:#ffc3bd"></polygon><path d="M325.06,401.64l7.86-5a.67.67,0,0,1,.85.07l4.74,4.93a1.18,1.18,0,0,1-.33,1.8c-2.74,1.68-4.23,2.44-7.65,4.61-2.1,1.33-11,6.12-14.29,6.35s-3.66-2.88-2.32-3.38c6.76-2.52,9.39-5.74,10.25-8.27A2.21,2.21,0,0,1,325.06,401.64Z" style="fill:#263238"></path><polygon points="324.51 383.1 317.44 387.17 321.82 395.1 328.89 391.03 324.51 383.1" style="opacity:0.2"></polygon><path d="M302.58,226.4s-20.95,68.36-19.68,91.16c1.39,25,35,77.59,35,77.59l12.67-8s-23.74-51.82-24.63-71c1.31-27.76,27-87.59,27-87.59Z" style="fill:#263238"></path><path d="M323.14,245c-7,4.28-9.77,22.54-8.29,31.81,3.78-11.74,8.1-23.31,11.56-32.18A3.27,3.27,0,0,0,323.14,245Z" style="opacity:0.2"></path><polygon points="316.5 396.37 331.43 386.91 328.98 382.7 313.32 392.25 316.5 396.37" style="fill:#407BFF"></polygon><path d="M323.44,404.23a2.61,2.61,0,0,1-1.53.51,1,1,0,0,1-.81-.6.61.61,0,0,1,0-.61c.56-.86,3.54-1,3.88-1a.15.15,0,0,1,.16.1.19.19,0,0,1-.05.21A10.67,10.67,0,0,1,323.44,404.23Zm-1.82-.7a.66.66,0,0,0-.19.18.21.21,0,0,0,0,.24.64.64,0,0,0,.55.42,4.2,4.2,0,0,0,2.52-1.44A8.17,8.17,0,0,0,321.62,403.53Z" style="fill:#407BFF"></path><path d="M325.08,402.88l-.09,0c-.93.09-3.15-.47-3.43-1.29a.63.63,0,0,1,.29-.73,1.09,1.09,0,0,1,.81-.25c1.17.11,2.43,1.89,2.48,2a.16.16,0,0,1,0,.19A.18.18,0,0,1,325.08,402.88Zm-2.94-1.76-.07.05c-.2.16-.16.26-.15.31.16.48,1.68,1,2.68,1.06-.4-.5-1.26-1.46-2-1.53A.72.72,0,0,0,322.14,401.12Z" style="fill:#407BFF"></path><polygon points="348.4 407.73 340.54 407.73 339.89 389.52 347.76 389.52 348.4 407.73" style="fill:#ffc3bd"></polygon><path d="M339.45,406.82H349a.69.69,0,0,1,.67.54l1.55,7a1.16,1.16,0,0,1-1.15,1.4c-3.09-.05-5.34-.24-9.22-.24-2.39,0-9.6.25-12.9.25s-3.73-3.26-2.38-3.56c6.06-1.32,10.62-3.15,12.56-4.89A1.9,1.9,0,0,1,339.45,406.82Z" style="fill:#263238"></path><path d="M314.68,170.08c-4.64,2.48-9.31,4.81-14,7.09s-9.46,4.46-14.23,6.6l-1.79.8-.9.4-.11.05s-.11,0,0,0a.86.86,0,0,0,.2-.13,1.79,1.79,0,0,0,.36-.3c.44-.46.45-.74.41-.69a1.64,1.64,0,0,0-.22.68,13.32,13.32,0,0,0-.07,2.89,33.62,33.62,0,0,0,.36,3.46c.71,4.76,1.93,9.82,3.16,14.72L282.35,208a75.73,75.73,0,0,1-6.7-14.94c-.41-1.36-.79-2.75-1.09-4.23a23.62,23.62,0,0,1-.46-4.91,13.09,13.09,0,0,1,.45-3.16,8.82,8.82,0,0,1,2.39-4,7.7,7.7,0,0,1,1.13-.9l.63-.37.28-.15.86-.47,1.72-.93q6.87-3.72,13.77-7.34c4.61-2.4,9.25-4.78,13.88-7.07Z" style="fill:#ffc3bd"></path><path d="M320.51,170.83c-2.69,7-23.4,13.42-23.4,13.42l-6.23-16.33s10.26-6.52,19.5-9.54C316.59,156.35,323.43,163.19,320.51,170.83Z" style="fill:#407BFF"></path><path d="M320.51,170.83c-2.69,7-23.4,13.42-23.4,13.42l-6.23-16.33s10.26-6.52,19.5-9.54C316.59,156.35,323.43,163.19,320.51,170.83Z" style="opacity:0.2"></path><path d="M305.63,167.39c-3.55,2.11-6.28,10.33-7.4,16.5,4.33-1.44,20-7,22.28-13.06Z" style="opacity:0.2"></path><path d="M288,206.38l1.09,5.89-8.44-1.89a8.45,8.45,0,0,1,1.62-6.7l2.78.13A3.13,3.13,0,0,1,288,206.38Z" style="fill:#ffc3bd"></path><polygon points="287.64 217.77 280.84 217 280.65 210.38 289.1 212.27 287.64 217.77" style="fill:#ffc3bd"></polygon><polygon points="347.76 389.53 339.89 389.53 340.23 398.92 348.1 398.92 347.76 389.53" style="opacity:0.2"></polygon><path d="M351.74,161.3a177.3,177.3,0,0,0-5,25.87c-.75,6.09-1.19,11.9-1.47,17.18-.65,12.36-.38,21.78-.75,25-6.15-.42-29.32-2-41.95-2.92-4.22-33,.61-54.16,3.43-63a8,8,0,0,1,6.64-5.51c1.53-.19,3.3-.38,5.16-.49.72,0,1.44-.07,2.17-.08a155,155,0,0,1,17.84,1.24c1.12.13,2.26.3,3.36.48C346.8,159.93,351.74,161.3,351.74,161.3Z" style="fill:#407BFF"></path><path d="M351.74,161.3a177.3,177.3,0,0,0-5,25.87c-.75,6.09-1.19,11.9-1.47,17.18-.65,12.36-.38,21.78-.75,25-6.15-.42-29.32-2-41.95-2.92-4.22-33,.61-54.16,3.43-63a8,8,0,0,1,6.64-5.51c1.53-.19,3.3-.38,5.16-.49.72,0,1.44-.07,2.17-.08a155,155,0,0,1,17.84,1.24c1.12.13,2.26.3,3.36.48C346.8,159.93,351.74,161.3,351.74,161.3Z" style="opacity:0.2"></path><path d="M341.15,172.62a33.18,33.18,0,0,0,5.19,18.18c.12-1.2.26-2.41.41-3.63.56-4.58,1.28-9.32,2.24-14.11Z" style="opacity:0.2"></path><path d="M335.11,136.94c3.86-.63,6,6.06,2.4,7.09,0,3.26-5.16,6.35-7.41,2.65S330.91,137.63,335.11,136.94Z" style="fill:#263238"></path><path d="M337.45,138.33c-1.52,5.67-3.38,16.1.37,20.21a17.87,17.87,0,0,1-14.13,4.51c-4.93-.45-4.94-3.92-3.71-5.75,6.51-1.08,6.68-5.84,5.87-10.38Z" style="fill:#ffc3bd"></path><path d="M332.72,141.84l-6.86,5.07a19.75,19.75,0,0,1,.33,3.21c2.47-.18,6-2.63,6.45-5.17A8.5,8.5,0,0,0,332.72,141.84Z" style="opacity:0.2"></path><path d="M327,116.17c-3-3.74-13.66.27-11.39,4.16-4.11,2.84-3,9.75,4,8.39S330.3,120.22,327,116.17Z" style="fill:#263238"></path><path d="M338.74,129.75c-1,7.73-1.22,12.31-5.43,16-6.32,5.59-15.66,1.36-17-6.53-1.18-7.1.69-18.56,8.51-21.12A10.65,10.65,0,0,1,338.74,129.75Z" style="fill:#ffc3bd"></path><path d="M321.9,118.72c.65,2,6.07,7.84,12.9,8.67-1.94,3.55.39,7.61,3.34,8.22,4.6,0,10.77-5.07,6.1-8.05,3.45-5.12-.05-9.5-3.27-9.23C337.82,111.5,317.41,105.11,321.9,118.72Z" style="fill:#263238"></path><path d="M322.24,118.33a10.49,10.49,0,0,0,3.27,7.13c-3.52-1-6.16-3.71-5.73-6.31S321.87,114.78,322.24,118.33Z" style="fill:#263238"></path><path d="M341.65,138.56a7.41,7.41,0,0,1-4.84,2.94c-2.57.38-3.53-2-2.55-4.26.89-2,3.3-4.68,5.75-4S343.05,136.6,341.65,138.56Z" style="fill:#ffc3bd"></path><path d="M317.45,227.44s4.45,67.32,7.77,90.12c3.63,25,11.4,79.54,11.4,79.54H351s-2.94-52.2-4.3-76.77c-1.56-28-2.19-91-2.19-91Z" style="fill:#263238"></path><polygon points="334.89 397.41 351.85 397.41 351.85 392.34 334.25 392.01 334.89 397.41" style="fill:#407BFF"></polygon><path d="M326.8,131.1c0,.63-.41,1.12-.83,1.09s-.71-.57-.67-1.2.42-1.12.83-1.09S326.84,130.46,326.8,131.1Z" style="fill:#263238"></path><path d="M319.65,130.6c0,.63-.42,1.12-.83,1.09s-.71-.57-.67-1.2.42-1.12.83-1.09S319.69,130,319.65,130.6Z" style="fill:#263238"></path><path d="M321.9,131.07a22.57,22.57,0,0,1-3.4,5.2,3.67,3.67,0,0,0,3,.78Z" style="fill:#ed847e"></path><path d="M329.18,128.94a.39.39,0,0,1-.35-.17,3,3,0,0,0-2.29-1.41.37.37,0,1,1,0-.74,3.69,3.69,0,0,1,2.91,1.74.37.37,0,0,1-.1.52A.58.58,0,0,1,329.18,128.94Z" style="fill:#263238"></path><path d="M324.25,140.14h0a5.71,5.71,0,0,0,4.63-2.52.2.2,0,0,0-.07-.27.19.19,0,0,0-.27.07,5.47,5.47,0,0,1-4.31,2.32.19.19,0,0,0-.19.21A.19.19,0,0,0,324.25,140.14Z" style="fill:#263238"></path><path d="M316.75,127.92a.36.36,0,0,1-.22,0,.37.37,0,0,1-.14-.51,3.69,3.69,0,0,1,2.82-1.9.37.37,0,0,1,.39.35.38.38,0,0,1-.35.39h0a3,3,0,0,0-2.21,1.54A.38.38,0,0,1,316.75,127.92Z" style="fill:#263238"></path><path d="M336.85,408.2a2.35,2.35,0,0,1-1.51-.4,1.1,1.1,0,0,1-.39-1,.56.56,0,0,1,.32-.52c.87-.45,3.41,1.11,3.69,1.29a.17.17,0,0,1,.09.18.19.19,0,0,1-.14.16A9.41,9.41,0,0,1,336.85,408.2Zm-1.17-1.63a.43.43,0,0,0-.24.05c-.05,0-.11.07-.12.22a.77.77,0,0,0,.25.67,3.82,3.82,0,0,0,2.8.14A7.63,7.63,0,0,0,335.68,406.57Z" style="fill:#407BFF"></path><path d="M338.86,407.92l-.09,0c-.81-.44-2.38-2.17-2.22-3a.61.61,0,0,1,.6-.49,1,1,0,0,1,.79.24c.91.74,1.1,3,1.11,3.11a.2.2,0,0,1-.09.17A.17.17,0,0,1,338.86,407.92Zm-1.58-3.19h-.09c-.24,0-.26.14-.27.19-.1.51.9,1.82,1.71,2.43a4.41,4.41,0,0,0-.93-2.46A.64.64,0,0,0,337.28,404.73Z" style="fill:#407BFF"></path><path d="M352.7,165.27c1.07,1.19,2,2.26,2.94,3.42s1.85,2.3,2.75,3.46c1.78,2.34,3.51,4.74,5.13,7.23a80.69,80.69,0,0,1,8.4,16.16l.14.37c.07.22.15.45.21.68a9.08,9.08,0,0,1,.24,1.27,10.22,10.22,0,0,1,0,2.14,13.84,13.84,0,0,1-.7,3.2,28.29,28.29,0,0,1-2.18,4.71,61.88,61.88,0,0,1-5.22,7.54,110.19,110.19,0,0,1-12,12.75l-4.4-3.93c3.14-4.58,6.27-9.29,9.07-14a69.26,69.26,0,0,0,3.69-7,17.58,17.58,0,0,0,1.09-3.13,3.94,3.94,0,0,0,.11-1c0-.07,0-.09,0,0a.7.7,0,0,0,0,.22,1.16,1.16,0,0,0,0,.18l0,0,0-.05-.05-.11a73.63,73.63,0,0,0-3.7-6.83c-1.4-2.26-2.9-4.49-4.46-6.7s-3.21-4.38-4.89-6.54-3.44-4.32-5.08-6.3Z" style="fill:#ffc3bd"></path><path d="M349.56,160.89c7.52.31,16.74,17.11,16.74,17.11L353,189.44a83.47,83.47,0,0,1-10.57-13.08C336.56,167.53,340.47,160.5,349.56,160.89Z" style="fill:#407BFF"></path><path d="M349.56,160.89c7.52.31,16.74,17.11,16.74,17.11L353,189.44a83.47,83.47,0,0,1-10.57-13.08C336.56,167.53,340.47,160.5,349.56,160.89Z" style="opacity:0.2"></path><path d="M351,222.5l-8-.42,3.52,8.94s7.06-.76,6.86-4.46Z" style="fill:#ffc3bd"></path><polygon points="337.63 225.82 340.37 231.88 346.55 231.02 343.02 222.08 337.63 225.82" style="fill:#ffc3bd"></polygon><g style="opacity:0.6000000000000001"><path d="M320.91,170.56c-6.31-.25-11.94,5.95-12.57,13.87s4,14.55,10.31,14.81,12-6,12.58-13.87S327.24,170.82,320.91,170.56Zm2.83,9.26a1.28,1.28,0,0,1,1.05,1.49,1.38,1.38,0,0,1-1.27,1.39,1.26,1.26,0,0,1-1-1.49A1.38,1.38,0,0,1,323.74,179.82Zm-7.09-.29a1.27,1.27,0,0,1,1,1.49,1.36,1.36,0,0,1-1.26,1.39,1.26,1.26,0,0,1-1-1.49A1.38,1.38,0,0,1,316.65,179.53Zm9.85,5.84c-1.18,3.65-4.15,6.1-7.23,6s-5.65-2.82-6.23-6.55a.56.56,0,0,1,.1-.47.31.31,0,0,1,.5,0,.44.44,0,0,1,.1.22c.52,3.37,2.82,5.8,5.61,5.92s5.45-2.11,6.5-5.42a.45.45,0,0,1,.11-.19.3.3,0,0,1,.5,0A.52.52,0,0,1,326.5,185.37Z" style="fill:#fff"></path></g></g><g id="freepik--character-1--inject-18"><path d="M196.46,154.89,195.41,148l7.46,4.12s0,5.37-3.08,7l-.71-.42A5.45,5.45,0,0,1,196.46,154.89Z" style="fill:#ffb573"></path><polygon points="197.53 142.18 204.23 144.65 202.87 152.16 195.41 148.04 197.53 142.18" style="fill:#ffb573"></polygon><path d="M158.2,125.42c5-11.42,24-6.2,27.23,4.75,2.87,9.78,11.28,6.53,12.11,15.2s-9.66,8.69-6.61,19c2.65,8.9-6.12,7.75-11.2,4.17S156,181.82,151.4,171.45s5.5-12.69,1.75-22.86S147,125.5,158.2,125.42Z" style="fill:#263238"></path><path d="M196.22,172.42l-.07-.09,0,0,.05,0,.16.15.42.34a11.55,11.55,0,0,0,1,.73,21.37,21.37,0,0,0,2.37,1.31,26.92,26.92,0,0,0,5.48,2c1,.28,2,.46,3,.68s2,.37,3.06.48l1.55.2h.06l-.14,0a2.3,2.3,0,0,0-.95.5,2.45,2.45,0,0,0-.79,1.21c-.07.33,0,.4,0,.42a2.08,2.08,0,0,0-.11-.68,15.38,15.38,0,0,0-1-2.54c-.43-.9-.93-1.83-1.44-2.76-1-1.85-2.2-3.7-3.38-5.54-2.38-3.68-4.89-7.36-7.42-11l3.22-2.76a133.37,133.37,0,0,1,9.19,10.11c1.45,1.77,2.85,3.6,4.19,5.53.67,1,1.33,2,1.94,3a22.24,22.24,0,0,1,1.73,3.59,9.93,9.93,0,0,1,.6,2.58,6.06,6.06,0,0,1-.2,2.09,5.1,5.1,0,0,1-1.67,2.6,5.6,5.6,0,0,1-2.47,1.15,7.26,7.26,0,0,1-1,.12h-.77l-1.8-.06a45,45,0,0,1-7.23-.87,36.08,36.08,0,0,1-7.23-2.3,25.16,25.16,0,0,1-3.5-1.93c-.57-.39-1.14-.79-1.7-1.26-.28-.22-.57-.5-.85-.76l-.44-.44-.24-.27-.12-.14-.2-.24Z" style="fill:#ffb573"></path><path d="M184.72,169.12c-1-4,11.23,2.19,13.8,3.43L194.6,185.5s-9.55-1.6-11.46-5.82A9.53,9.53,0,0,1,184.72,169.12Z" style="fill:#407BFF"></path><path d="M191.49,174.1l-1.4,10.24a31.48,31.48,0,0,0,3.64,1Z" style="opacity:0.2"></path><path d="M148.21,171.16c-2.11-5.66-.32-8.93,1.41-12.1,1.62-3,3.16-5.79,1.69-10.65-2.1-6.94-3.86-16.17-.29-20.72,1.56-2,4-2.91,7.21-2.75l-.06,1c-2.87-.16-5,.64-6.36,2.36-3.31,4.22-1.58,13.11.45,19.83,1.59,5.25-.11,8.38-1.77,11.41s-3.29,6-1.34,11.27Z" style="fill:#263238"></path><polygon points="119.45 390.93 124.59 397.55 140.25 386.08 135.11 379.47 119.45 390.93" style="fill:#ffb573"></polygon><path d="M125.41,397.33l-5.21-7.83a.66.66,0,0,0-.85-.24l-6.79,3.23a1.34,1.34,0,0,0-.5,1.94c1.86,2.7,2.9,3.91,5.19,7.36,1.41,2.12,5.24,8.35,7.18,11.28s4.95,1.16,4.4-.23c-2.46-6.25-3.4-11.18-3.08-14A2.24,2.24,0,0,0,125.41,397.33Z" style="fill:#263238"></path><g style="opacity:0.2"><polygon points="140.25 386.08 131.05 392.82 127.03 385.38 135.1 379.47 140.25 386.08"></polygon></g><path d="M192,173.55c.21,5.82-.55,18.4-5,45.56H153c.57-13.84.59-22.38-6-50.8a100.28,100.28,0,0,1,14.45-1.9,107.55,107.55,0,0,1,15.45,0c3.54.32,7.33.91,10.1,1.39A6,6,0,0,1,192,173.55Z" style="fill:#407BFF"></path><path d="M163,149c1,5,1.95,14.08-1.53,17.4,0,0,1.17,5.59,10.4,5.59,8.95,0,5-5.59,5-5.59-5.55-1.32-5.4-5.44-4.44-9.3Z" style="fill:#ffb573"></path><path d="M176.46,181.17a.5.5,0,0,1-.27-.08c-.55-.34-13.64-8.54-17.19-14.28a.51.51,0,0,1,.16-.69.49.49,0,0,1,.69.16c3.07,5,14.06,12.16,16.42,13.68,2.61-5,2.85-11.18,1.26-13.13a.5.5,0,0,1,.07-.71.5.5,0,0,1,.7.07c1.88,2.3,1.67,9.23-1.41,14.72a.49.49,0,0,1-.31.24Z" style="fill:#fff"></path><path d="M166.85,152.32l5.62,4.79a16.58,16.58,0,0,0-.48,2.74c-2.12-.31-5-2.63-5.25-4.85A7.5,7.5,0,0,1,166.85,152.32Z" style="opacity:0.2"></path><path d="M157.63,140.4c1.89,8.1,2.52,11.56,7.37,15.06,7.29,5.26,16.82,1.16,17.38-7.34.5-7.65-2.68-19.6-11.24-21.49A11.33,11.33,0,0,0,157.63,140.4Z" style="fill:#ffb573"></path><path d="M162,126.34c4.29.69,4.72,20.1-3.84,19.49S151.32,124.62,162,126.34Z" style="fill:#263238"></path><path d="M160.93,125.67c-3.6,3.4,1.78,10.77,6.89,7.27s8.06-2.83,12.67-1,4.66-6.38-3.45-7.88S165.1,121.72,160.93,125.67Z" style="fill:#263238"></path><path d="M187.06,219.11s6.61,64.53,6.06,90.07c-.57,26.58-58.61,83.39-58.61,83.39l-6.27-9.44c-1.29,1.32,44.63-56.41,44-71.92-1.09-28.45-10.13-92.1-10.13-92.1Z" style="fill:#407BFF"></path><path d="M187.06,219.11s6.61,64.53,6.06,90.07c-.57,26.58-58.61,83.39-58.61,83.39l-6.27-9.44c-1.29,1.32,44.63-56.41,44-71.92-1.09-28.45-10.13-92.1-10.13-92.1Z" style="opacity:0.30000000000000004"></path><polygon points="126.98 382.65 134.45 393.63 139.33 390.94 130.25 379.14 126.98 382.65" style="fill:#263238"></polygon><path d="M172.39,235.17c8.35,16.81,1.68,47.47-1.28,58.88-1.51-17.13-4.07-38.08-6.06-53.46C166.32,231.89,168.53,227.42,172.39,235.17Z" style="opacity:0.2"></path><polygon points="138.18 407.69 146.56 407.69 149.63 388.29 141.26 388.29 138.18 407.69" style="fill:#ffb573"></polygon><path d="M147,406.72h-9.41a.77.77,0,0,0-.74.57l-2,7.44a1.16,1.16,0,0,0,1.15,1.49c3.29-.05,4.89-.25,9-.25,2.55,0,9.82.27,13.34.27s4.15-3.48,2.73-3.79c-6.38-1.42-10.76-3.36-12.73-5.22A1.94,1.94,0,0,0,147,406.72Z" style="fill:#263238"></path><g style="opacity:0.2"><polygon points="149.63 388.29 148.05 398.29 139.67 398.29 141.25 388.29 149.63 388.29"></polygon></g><path d="M177.65,219.11s-7,64.53-10.9,90.07c-4,26.58-16.67,87.17-16.67,87.17H138.75s4.51-59,6.9-85.14c2.6-28.45,7.09-92.1,7.09-92.1Z" style="fill:#407BFF"></path><path d="M177.65,219.11s-7,64.53-10.9,90.07c-4,26.58-16.67,87.17-16.67,87.17H138.75s4.51-59,6.9-85.14c2.6-28.45,7.09-92.1,7.09-92.1Z" style="opacity:0.30000000000000004"></path><polygon points="137.72 396.76 151.01 396.76 152.53 392.52 137.72 392 137.72 396.76" style="fill:#263238"></polygon><path d="M149.92,408.18a3.42,3.42,0,0,0,2.1-.52,1.25,1.25,0,0,0,.49-1,.56.56,0,0,0-.27-.53c-1-.56-4.52,1.14-4.92,1.34a.23.23,0,0,0-.13.2.17.17,0,0,0,.14.17A13.67,13.67,0,0,0,149.92,408.18Zm1.72-1.73a.7.7,0,0,1,.36.07.21.21,0,0,1,.11.21.84.84,0,0,1-.31.64c-.57.46-2,.53-3.78.23A12.12,12.12,0,0,1,151.64,406.45Z" style="fill:#407BFF"></path><path d="M147.36,407.88h.09c1.06-.46,3.27-2.26,3.23-3.21,0-.23-.13-.51-.67-.56a1.59,1.59,0,0,0-1.14.34c-1.17.88-1.65,3.13-1.68,3.23a.19.19,0,0,0,.06.18A.23.23,0,0,0,147.36,407.88Zm2.44-3.39h.12c.36,0,.36.19.36.23,0,.57-1.5,2-2.6,2.61a5.29,5.29,0,0,1,1.4-2.58A1.14,1.14,0,0,1,149.8,404.49Z" style="fill:#407BFF"></path><path d="M171,140.35c.12.67.56,1.15,1,1.07s.69-.67.58-1.34-.56-1.14-1-1.07S170.93,139.69,171,140.35Z" style="fill:#263238"></path><path d="M178.57,139.07c.12.67.56,1.15,1,1.07s.69-.67.58-1.34-.56-1.14-1-1.07S178.46,138.4,178.57,139.07Z" style="fill:#263238"></path><path d="M179,137.8l1.52-.73S179.88,138.46,179,137.8Z" style="fill:#263238"></path><path d="M176.46,140.67a17.88,17.88,0,0,0,3.09,3.84,2.91,2.91,0,0,1-2.3.85Z" style="fill:#ed893e"></path><path d="M174.07,148.59a9.09,9.09,0,0,0,1-.09.2.2,0,0,0,.16-.23.22.22,0,0,0-.23-.17,5.32,5.32,0,0,1-4.65-1.33.2.2,0,1,0-.29.27A5.53,5.53,0,0,0,174.07,148.59Z" style="fill:#263238"></path><path d="M156.26,147.46a6.11,6.11,0,0,0,3.76,2.72c2.07.48,3-1.4,2.36-3.31-.59-1.72-2.39-4-4.43-3.66A2.72,2.72,0,0,0,156.26,147.46Z" style="fill:#ffb573"></path><path d="M167.76,139.33a.38.38,0,0,0,.37-.28c.54-1.75,2.79-2.5,2.81-2.51a.4.4,0,0,0-.25-.75c-.11,0-2.65.89-3.32,3a.41.41,0,0,0,.27.5Z" style="fill:#263238"></path><path d="M180.24,135.21a.42.42,0,0,0,.34-.2.4.4,0,0,0-.15-.54,3.94,3.94,0,0,0-3.61-.25.4.4,0,0,0,.36.71h0a3.13,3.13,0,0,1,2.86.22A.36.36,0,0,0,180.24,135.21Z" style="fill:#263238"></path><path d="M125.93,400.76a3.1,3.1,0,0,0,1.55,1.41,1.09,1.09,0,0,0,1-.24.62.62,0,0,0,.26-.57c-.1-1.16-3.37-3-3.74-3.21a.2.2,0,0,0-.23,0,.2.2,0,0,0,0,.22A13.58,13.58,0,0,0,125.93,400.76Zm2.27.29a.83.83,0,0,1,.14.35.22.22,0,0,1-.1.22.72.72,0,0,1-.66.17c-.66-.17-1.49-1.28-2.26-3A10.87,10.87,0,0,1,128.2,401.05Z" style="fill:#407BFF"></path><path d="M124.74,398.44a.1.1,0,0,0,.06.05c.92.59,3.52,1.23,4.23.58.16-.16.31-.44.05-.93a1.45,1.45,0,0,0-.89-.73c-1.32-.39-3.3.7-3.39.74a.21.21,0,0,0-.1.17A.19.19,0,0,0,124.74,398.44Zm3.93-.22.06.1c.17.32.06.42,0,.46-.43.39-2.35.06-3.43-.45a4.58,4.58,0,0,1,2.74-.54A1.07,1.07,0,0,1,128.67,398.22Z" style="fill:#407BFF"></path><path d="M171.44,139.08l1.52-.73S172.35,139.74,171.44,139.08Z" style="fill:#263238"></path><path d="M152.53,217.12l-.87,3c-.12.24.16.48.56.48h35c.31,0,.56-.15.58-.34l.31-3.05c0-.21-.25-.39-.58-.39H153.09A.61.61,0,0,0,152.53,217.12Z" style="fill:#263238"></path><path d="M157.16,221h-.92c-.19,0-.33-.1-.31-.21l.43-4c0-.11.17-.21.36-.21h.92c.18,0,.32.1.31.21l-.43,4C157.5,220.87,157.34,221,157.16,221Z" style="fill:#407BFF"></path><g style="opacity:0.30000000000000004"><path d="M157.16,221h-.92c-.19,0-.33-.1-.31-.21l.43-4c0-.11.17-.21.36-.21h.92c.18,0,.32.1.31.21l-.43,4C157.5,220.87,157.34,221,157.16,221Z"></path></g><path d="M184.64,221h-.92c-.19,0-.33-.1-.32-.21l.44-4c0-.11.17-.21.35-.21h.93c.18,0,.32.1.31.21l-.44,4C185,220.87,184.82,221,184.64,221Z" style="fill:#407BFF"></path><path d="M184.64,221h-.92c-.19,0-.33-.1-.32-.21l.44-4c0-.11.17-.21.35-.21h.93c.18,0,.32.1.31.21l-.44,4C185,220.87,184.82,221,184.64,221Z" style="opacity:0.30000000000000004"></path><path d="M170.9,221H170c-.19,0-.33-.1-.32-.21l.44-4c0-.11.17-.21.35-.21h.93c.18,0,.32.1.31.21l-.43,4C171.24,220.87,171.08,221,170.9,221Z" style="fill:#407BFF"></path><path d="M170.9,221H170c-.19,0-.33-.1-.32-.21l.44-4c0-.11.17-.21.35-.21h.93c.18,0,.32.1.31.21l-.43,4C171.24,220.87,171.08,221,170.9,221Z" style="opacity:0.30000000000000004"></path><path d="M151.5,179.71c-.71,4.07-1.41,8.27-2.06,12.41s-1.21,8.3-1.64,12.42c-.12,1-.19,2.05-.29,3.08v.12s0-.05,0-.08,0-.13-.05-.21a1.55,1.55,0,0,0-.21-.45c-.19-.24-.28-.22-.18-.12a5.23,5.23,0,0,0,1.77.73,22.36,22.36,0,0,0,2.7.51,95,95,0,0,0,12.27.47l.65,4.19a54.84,54.84,0,0,1-13.28,2,25.71,25.71,0,0,1-3.65-.21,12.41,12.41,0,0,1-4.28-1.31,7,7,0,0,1-2.49-2.29,6,6,0,0,1-.8-1.93,5,5,0,0,1-.15-1l0-.49v-.27c0-1.11,0-2.22.09-3.31.19-4.4.6-8.74,1.16-13s1.21-8.56,2.08-12.87Z" style="fill:#ffb573"></path><path d="M147,168.31c-3.41,1-7.5,12.78-7.5,12.78l13.22,9.45s4.83-9.8,3.39-14.2C154.63,171.75,150.9,167.13,147,168.31Z" style="fill:#407BFF"></path><path d="M161.79,208.77l8.6-2.8-3.2,7.89s-5.34.63-7.34-2.22Z" style="fill:#ffb573"></path><polygon points="173.56 206.88 180.19 203.08 166.38 203.08 173.01 206.88 173.01 216 169.43 218.06 177.14 218.06 173.56 216 173.56 206.88" style="fill:#fff"></polygon><polygon points="173.28 205.96 177.03 204.19 169.54 204.19 173.28 205.96" style="fill:#407BFF;opacity:0.5"></polygon><polygon points="175.24 207.74 173.97 214.84 167.19 213.86 170.39 205.97 175.24 207.74" style="fill:#ffb573"></polygon></g></svg>